<svg width="568" height="518" viewBox="0 0 568 518" fill="none" xmlns="http://www.w3.org/2000/svg">
<path d="M566.623 353.565L391.269 1L9.55383 129.205L169.938 488.181L566.623 353.565Z" fill="white" stroke="black"/>
<path d="M566.623 381.343L164.592 517.027L1 160.189L8.48461 130.274L169.938 488.181L566.623 354.633V381.343Z" fill="#D5CDCD" fill-opacity="0.29"/>
<path d="M169.938 488.181L164.592 517.027M169.938 488.181L566.623 354.634V381.343L164.592 517.027M169.938 488.181L8.48461 130.274L1 160.189L164.592 517.027" stroke="black"/>
<path d="M127.612 170.546L143.745 213.09L135.007 216.398L118.873 173.855L127.612 170.546ZM140.705 165.588L143.309 172.455L108.589 185.601L105.985 178.735L140.705 165.588ZM173.338 202.553C170.883 203.482 168.534 203.926 166.29 203.885C164.039 203.824 161.965 203.35 160.069 202.464C158.193 201.571 156.544 200.335 155.121 198.758C153.691 197.161 152.577 195.31 151.779 193.206L151.336 192.037C150.428 189.641 149.937 187.321 149.866 185.076C149.794 182.831 150.115 180.738 150.827 178.797C151.559 176.849 152.693 175.139 154.229 173.667C155.757 172.174 157.671 170.993 159.97 170.123C162.211 169.274 164.339 168.892 166.353 168.976C168.368 169.059 170.218 169.562 171.905 170.482C173.61 171.396 175.127 172.693 176.455 174.373C177.775 176.034 178.875 178.024 179.754 180.342L181.084 183.848L155.95 193.365L153.823 187.754L170.686 181.369L170.442 180.727C169.999 179.558 169.389 178.597 168.613 177.844C167.85 177.064 166.945 176.559 165.901 176.331C164.856 176.103 163.681 176.236 162.376 176.73C161.265 177.151 160.403 177.756 159.789 178.545C159.175 179.335 158.78 180.264 158.606 181.332C158.452 182.393 158.473 183.566 158.67 184.85C158.88 186.107 159.25 187.437 159.782 188.839L160.225 190.008C160.706 191.274 161.324 192.377 162.081 193.315C162.858 194.247 163.725 194.976 164.683 195.505C165.66 196.026 166.707 196.32 167.825 196.387C168.961 196.447 170.143 196.244 171.371 195.779C172.891 195.204 174.192 194.377 175.276 193.298C176.372 192.193 177.168 190.855 177.665 189.286L183.441 192.178C183.14 193.384 182.582 194.642 181.764 195.954C180.967 197.258 179.876 198.496 178.493 199.665C177.102 200.816 175.384 201.778 173.338 202.553ZM201.677 184.304C202.71 183.913 203.552 183.372 204.203 182.68C204.847 181.968 205.256 181.167 205.431 180.277C205.618 179.359 205.532 178.4 205.175 177.399L213.095 174.401C213.918 176.629 214.073 178.831 213.562 181.007C213.043 183.164 211.988 185.112 210.397 186.85C208.798 188.569 206.781 189.89 204.346 190.812C201.891 191.742 199.593 192.144 197.451 192.019C195.329 191.887 193.39 191.329 191.636 190.345C189.874 189.341 188.325 187.99 186.99 186.29C185.647 184.571 184.555 182.601 183.713 180.38L183.391 179.533C182.542 177.292 182.053 175.094 181.926 172.937C181.791 170.76 182.055 168.722 182.716 166.823C183.37 164.905 184.448 163.194 185.949 161.689C187.451 160.185 189.42 158.972 191.855 158.05C194.446 157.069 196.905 156.706 199.23 156.962C201.574 157.21 203.653 158.049 205.465 159.479C207.289 160.883 208.688 162.837 209.66 165.342L201.74 168.341C201.322 167.297 200.736 166.427 199.982 165.732C199.248 165.03 198.385 164.577 197.394 164.373C196.416 164.142 195.352 164.244 194.202 164.68C192.975 165.144 192.071 165.787 191.491 166.608C190.904 167.41 190.566 168.34 190.477 169.398C190.381 170.437 190.459 171.555 190.712 172.751C190.977 173.92 191.343 175.119 191.808 176.346L192.129 177.193C192.595 178.42 193.12 179.569 193.704 180.64C194.288 181.711 194.961 182.603 195.722 183.318C196.503 184.025 197.379 184.484 198.35 184.695C199.321 184.907 200.43 184.776 201.677 184.304ZM213.29 135.432L230.31 180.313L221.893 183.5L204.873 138.618L213.29 135.432ZM222.696 163.848L220.387 164.723C219.572 162.514 219.096 160.377 218.959 158.313C218.815 156.229 219.011 154.306 219.546 152.544C220.073 150.763 220.924 149.215 222.097 147.902C223.289 146.582 224.782 145.582 226.575 144.904C228.133 144.314 229.631 144.003 231.067 143.971C232.515 143.913 233.882 144.197 235.167 144.825C236.464 145.425 237.662 146.409 238.759 147.775C239.857 149.142 240.827 150.935 241.669 153.156L249.248 173.142L240.773 176.351L233.171 156.307C232.64 154.904 232.018 153.881 231.306 153.237C230.606 152.567 229.813 152.21 228.927 152.166C228.054 152.096 227.072 152.267 225.981 152.68C224.773 153.138 223.825 153.753 223.138 154.525C222.47 155.291 222.034 156.168 221.83 157.159C221.619 158.13 221.596 159.186 221.762 160.326C221.927 161.467 222.238 162.641 222.696 163.848ZM281.899 143.437L271.056 147.542L268.464 140.705L279.306 136.599C280.982 135.965 282.242 135.176 283.087 134.232C283.925 133.269 284.399 132.198 284.51 131.02C284.62 129.842 284.439 128.63 283.966 127.383C283.486 126.117 282.796 125.031 281.895 124.124C280.994 123.218 279.892 122.633 278.589 122.369C277.285 122.105 275.796 122.29 274.12 122.925L266.317 125.879L279.847 161.556L271.079 164.876L254.946 122.332L271.516 116.058C274.848 114.797 277.931 114.32 280.766 114.627C283.614 114.908 286.069 115.861 288.133 117.485C290.198 119.109 291.743 121.275 292.77 123.983C293.812 126.73 294.08 129.346 293.574 131.832C293.068 134.318 291.824 136.56 289.841 138.558C287.878 140.549 285.231 142.175 281.899 143.437ZM323.144 137.009L317.803 122.925C317.419 121.912 316.924 121.108 316.32 120.513C315.708 119.898 314.973 119.519 314.117 119.375C313.28 119.225 312.316 119.356 311.225 119.769C310.29 120.123 309.544 120.595 308.987 121.184C308.424 121.754 308.071 122.411 307.93 123.155C307.782 123.879 307.859 124.641 308.162 125.44L299.745 128.627C299.235 127.283 299.063 125.889 299.228 124.445C299.394 123.001 299.897 121.596 300.738 120.231C301.572 118.846 302.708 117.58 304.145 116.435C305.602 115.282 307.353 114.318 309.399 113.543C311.854 112.614 314.191 112.197 316.411 112.292C318.63 112.387 320.596 113.046 322.307 114.269C324.038 115.485 325.369 117.32 326.3 119.775L331.43 133.303C332.088 135.037 332.734 136.419 333.37 137.448C333.998 138.457 334.671 139.294 335.391 139.957L335.579 140.454L327.075 143.674C326.34 142.972 325.622 142.018 324.921 140.814C324.231 139.583 323.638 138.314 323.144 137.009ZM319.656 124.463L321.52 129.203L316.815 130.985C315.704 131.405 314.788 131.897 314.066 132.46C313.343 133.023 312.808 133.638 312.459 134.305C312.103 134.952 311.913 135.626 311.888 136.325C311.884 137.018 312.018 137.724 312.291 138.445C312.565 139.166 312.978 139.756 313.531 140.215C314.076 140.654 314.723 140.921 315.472 141.017C316.214 141.092 317.004 140.971 317.841 140.654C319.108 140.175 320.113 139.505 320.856 138.644C321.599 137.783 322.083 136.887 322.309 135.955C322.555 135.016 322.561 134.211 322.33 133.541L325.903 136.265C325.894 137.182 325.779 138.172 325.559 139.236C325.358 140.292 324.992 141.355 324.462 142.424C323.924 143.475 323.173 144.461 322.208 145.383C321.236 146.286 319.961 147.036 318.383 147.633C316.376 148.393 314.403 148.684 312.463 148.505C310.536 148.299 308.825 147.666 307.331 146.605C305.849 145.518 304.761 144.059 304.067 142.227C303.439 140.572 303.193 138.983 303.329 137.461C303.465 135.939 303.971 134.512 304.846 133.178C305.734 131.817 307.008 130.566 308.67 129.424C310.324 128.263 312.359 127.225 314.775 126.311L319.656 124.463ZM337.706 103.494L349.695 135.109L341.249 138.307L329.26 106.692L337.706 103.494ZM325.609 98.6508C325.143 97.4236 325.188 96.2483 325.742 95.1251C326.297 94.0018 327.295 93.1672 328.737 92.6213C330.159 92.0828 331.45 92.0506 332.61 92.5246C333.79 92.9913 334.612 93.8383 335.078 95.0655C335.543 96.2927 335.489 97.4716 334.915 98.6023C334.361 99.7256 333.372 100.556 331.95 101.095C330.508 101.641 329.207 101.677 328.047 101.203C326.887 100.729 326.074 99.878 325.609 98.6508ZM348.515 84.2302L365.535 129.111L357.089 132.309L340.069 87.4282L348.515 84.2302ZM138.689 251.205L139.321 252.87L133.973 254.896L133.341 253.23L138.689 251.205ZM146.586 256.924L144.558 257.692L139.589 244.587C139.264 243.732 139.145 242.954 139.23 242.254C139.32 241.543 139.6 240.927 140.071 240.407C140.539 239.878 141.175 239.462 141.979 239.158C142.213 239.069 142.452 238.995 142.697 238.936C142.949 238.874 143.2 238.829 143.448 238.802L143.966 240.498C143.799 240.52 143.614 240.561 143.411 240.621C143.216 240.678 143.023 240.743 142.833 240.814C142.402 240.978 142.062 241.206 141.815 241.501C141.572 241.785 141.432 242.122 141.396 242.511C141.36 242.901 141.433 243.337 141.616 243.819L146.586 256.924ZM144.61 244.114L145.2 245.67L138.778 248.101L138.188 246.545L144.61 244.114ZM157.58 249.628L154.123 240.512L156.162 239.74L160.658 251.596L158.718 252.33L157.58 249.628ZM157.017 246.985L157.852 246.643C158.151 247.432 158.344 248.195 158.431 248.93C158.522 249.656 158.478 250.332 158.299 250.96C158.119 251.588 157.786 252.153 157.299 252.654C156.81 253.149 156.141 253.556 155.294 253.877C154.717 254.096 154.155 254.212 153.609 254.227C153.071 254.239 152.563 254.134 152.087 253.914C151.61 253.693 151.171 253.338 150.767 252.847C150.371 252.354 150.024 251.713 149.725 250.924L146.824 243.275L148.852 242.508L151.76 250.178C151.963 250.711 152.189 251.131 152.439 251.437C152.693 251.734 152.961 251.945 153.243 252.072C153.53 252.189 153.816 252.24 154.103 252.223C154.396 252.204 154.682 252.142 154.959 252.037C155.821 251.71 156.442 251.287 156.822 250.768C157.198 250.241 157.39 249.654 157.396 249.009C157.406 248.353 157.28 247.679 157.017 246.985ZM162.24 240.333L165.776 249.658L163.748 250.426L159.252 238.57L161.17 237.844L162.24 240.333ZM162.875 243.463L162.019 243.75C161.719 242.936 161.555 242.142 161.529 241.367C161.499 240.584 161.599 239.857 161.829 239.185C162.059 238.513 162.414 237.928 162.893 237.429C163.377 236.92 163.977 236.53 164.693 236.259C165.277 236.038 165.834 235.919 166.362 235.903C166.888 235.879 167.38 235.977 167.839 236.195C168.306 236.411 168.73 236.76 169.113 237.242C169.494 237.716 169.832 238.344 170.129 239.125L173.075 246.894L171.036 247.666L168.082 239.875C167.846 239.254 167.567 238.792 167.243 238.489C166.916 238.178 166.545 238.005 166.131 237.97C165.714 237.927 165.25 238.003 164.738 238.197C164.234 238.388 163.814 238.668 163.478 239.037C163.149 239.404 162.905 239.83 162.747 240.316C162.596 240.8 162.528 241.314 162.543 241.86C162.562 242.396 162.673 242.93 162.875 243.463ZM148.618 277.386L149.249 279.051L143.901 281.076L143.269 279.411L148.618 277.386ZM160.091 279.119L154.581 264.589L156.619 263.818L163.002 280.648L161.139 281.353L160.091 279.119ZM150.787 278.644L150.7 278.414C150.356 277.508 150.154 276.645 150.093 275.824C150.037 274.994 150.113 274.234 150.32 273.546C150.534 272.855 150.872 272.259 151.334 271.758C151.8 271.248 152.388 270.858 153.097 270.59C153.842 270.308 154.542 270.193 155.197 270.246C155.856 270.288 156.474 270.485 157.05 270.835C157.63 271.175 158.165 271.649 158.654 272.257C159.144 272.865 159.599 273.591 160.019 274.435L160.401 275.443C160.651 276.342 160.79 277.183 160.819 277.966C160.856 278.746 160.77 279.455 160.561 280.094C160.359 280.73 160.027 281.286 159.564 281.762C159.098 282.23 158.489 282.607 157.737 282.892C157.043 283.155 156.35 283.246 155.66 283.165C154.976 283.081 154.324 282.848 153.702 282.465C153.088 282.079 152.529 281.564 152.026 280.92C151.527 280.265 151.114 279.506 150.787 278.644ZM152.738 277.642L152.825 277.873C153.05 278.464 153.319 278.997 153.632 279.472C153.953 279.943 154.316 280.328 154.722 280.626C155.127 280.923 155.57 281.111 156.05 281.188C156.528 281.257 157.041 281.189 157.589 280.981C158.261 280.727 158.758 280.375 159.081 279.927C159.412 279.476 159.62 278.967 159.706 278.4C159.791 277.833 159.803 277.248 159.742 276.645L158.74 274.004C158.5 273.635 158.226 273.297 157.916 272.988C157.611 272.669 157.272 272.413 156.898 272.22C156.529 272.018 156.121 271.901 155.675 271.869C155.236 271.835 154.76 271.915 154.249 272.108C153.694 272.318 153.259 272.617 152.946 273.002C152.638 273.378 152.432 273.816 152.328 274.314C152.222 274.805 152.207 275.338 152.282 275.911C152.362 276.473 152.514 277.051 152.738 277.642ZM171.162 277.809C170.337 278.121 169.535 278.266 168.758 278.243C167.985 278.21 167.26 278.029 166.584 277.7C165.915 277.369 165.32 276.901 164.798 276.296C164.277 275.692 163.858 274.973 163.542 274.141L163.368 273.68C163.002 272.716 162.819 271.804 162.819 270.944C162.815 270.076 162.959 269.287 163.249 268.575C163.539 267.864 163.943 267.256 164.462 266.75C164.98 266.245 165.572 265.866 166.237 265.614C167.084 265.293 167.87 265.163 168.595 265.223C169.327 265.28 169.99 265.497 170.584 265.873C171.175 266.242 171.7 266.745 172.159 267.382C172.615 268.011 173 268.742 173.316 269.575L173.661 270.485L164.806 273.838L164.178 272.183L171.006 269.598L170.948 269.444C170.719 268.929 170.416 268.46 170.037 268.035C169.666 267.607 169.219 267.309 168.695 267.14C168.172 266.97 167.563 267.017 166.869 267.28C166.408 267.454 166.022 267.713 165.709 268.057C165.394 268.394 165.17 268.804 165.036 269.289C164.903 269.774 164.863 270.32 164.917 270.926C164.972 271.532 165.135 272.193 165.406 272.909L165.581 273.369C165.794 273.931 166.071 274.432 166.413 274.87C166.76 275.299 167.153 275.643 167.594 275.902C168.042 276.158 168.522 276.311 169.033 276.359C169.552 276.405 170.089 276.323 170.644 276.113C171.36 275.842 171.911 275.466 172.297 274.986C172.683 274.505 172.97 273.95 173.157 273.319L174.754 273.83C174.645 274.314 174.46 274.806 174.198 275.306C173.937 275.806 173.559 276.275 173.065 276.712C172.578 277.147 171.944 277.513 171.162 277.809ZM183.772 269.187C183.661 268.895 183.493 268.65 183.267 268.451C183.046 268.243 182.7 268.111 182.227 268.056C181.76 267.99 181.106 268.029 180.266 268.172C179.556 268.282 178.898 268.343 178.293 268.355C177.695 268.364 177.158 268.304 176.683 268.175C176.215 268.043 175.813 267.832 175.478 267.541C175.142 267.251 174.881 266.861 174.696 266.371C174.518 265.904 174.453 265.423 174.5 264.929C174.554 264.433 174.71 263.952 174.968 263.486C175.233 263.018 175.601 262.591 176.073 262.203C176.544 261.816 177.112 261.496 177.777 261.245C178.727 260.885 179.602 260.746 180.401 260.828C181.201 260.909 181.886 261.163 182.458 261.59C183.026 262.01 183.439 262.559 183.697 263.239L181.669 264.006C181.545 263.678 181.326 263.397 181.012 263.165C180.703 262.923 180.323 262.77 179.873 262.707C179.43 262.64 178.942 262.708 178.409 262.91C177.846 263.123 177.423 263.384 177.139 263.692C176.859 263.99 176.689 264.301 176.628 264.625C176.574 264.946 176.602 265.252 176.713 265.545C176.796 265.764 176.908 265.947 177.047 266.095C177.191 266.232 177.39 266.337 177.642 266.408C177.892 266.472 178.22 266.499 178.625 266.487C179.03 266.476 179.534 266.427 180.136 266.341C181.191 266.192 182.091 266.153 182.835 266.221C183.58 266.29 184.19 266.489 184.666 266.819C185.142 267.148 185.5 267.631 185.741 268.266C185.938 268.785 186.009 269.301 185.953 269.815C185.904 270.326 185.735 270.817 185.445 271.286C185.16 271.745 184.769 272.168 184.273 272.557C183.781 272.935 183.188 273.255 182.494 273.518C181.449 273.914 180.495 274.062 179.63 273.964C178.765 273.865 178.035 273.59 177.438 273.14C176.841 272.689 176.418 272.135 176.168 271.478L178.207 270.706C178.446 271.25 178.775 271.631 179.192 271.849C179.606 272.06 180.051 272.154 180.527 272.133C181.001 272.104 181.446 272.01 181.863 271.853C182.418 271.642 182.854 271.394 183.171 271.106C183.496 270.816 183.708 270.506 183.809 270.176C183.909 269.846 183.897 269.516 183.772 269.187ZM185.311 252.954L191.694 269.784L189.655 270.556L183.273 253.726L185.311 252.954ZM194.442 255.185L191.368 262.678L189.613 266.775L188.63 264.679L189.762 261.418L191.965 256.123L194.442 255.185ZM197.086 267.743L190.711 263.69L191.078 261.484L199.475 266.838L197.086 267.743ZM201.5 252.513L202.09 254.069L195.679 256.497L195.089 254.941L201.5 252.513ZM196.166 251.237L198.193 250.47L202.668 262.271C202.821 262.672 202.998 262.952 203.2 263.109C203.401 263.267 203.613 263.341 203.836 263.332C204.058 263.323 204.282 263.276 204.509 263.19C204.677 263.127 204.846 263.046 205.018 262.947C205.194 262.839 205.326 262.756 205.412 262.698L206.051 264.348C205.909 264.46 205.715 264.588 205.469 264.731C205.233 264.879 204.932 265.022 204.567 265.161C204.07 265.349 203.576 265.423 203.084 265.384C202.593 265.344 202.136 265.141 201.713 264.775C201.295 264.399 200.936 263.816 200.637 263.027L196.166 251.237ZM205.42 257.958L205.324 257.706C205 256.852 204.824 256.012 204.795 255.187C204.764 254.356 204.879 253.581 205.142 252.863C205.402 252.138 205.807 251.5 206.359 250.949C206.907 250.39 207.594 249.955 208.42 249.642C209.253 249.327 210.06 249.197 210.841 249.252C211.627 249.297 212.357 249.505 213.033 249.876C213.713 250.236 214.317 250.738 214.845 251.382C215.37 252.019 215.795 252.764 216.119 253.619L216.215 253.871C216.539 254.726 216.715 255.565 216.744 256.39C216.772 257.214 216.653 257.99 216.386 258.718C216.123 259.436 215.718 260.074 215.169 260.632C214.625 261.181 213.937 261.613 213.104 261.928C212.271 262.243 211.465 262.377 210.687 262.33C209.906 262.274 209.175 262.067 208.495 261.706C207.82 261.335 207.219 260.831 206.694 260.195C206.169 259.559 205.744 258.813 205.42 257.958ZM207.352 256.939L207.447 257.191C207.672 257.782 207.953 258.315 208.291 258.788C208.627 259.254 209.009 259.636 209.439 259.932C209.877 260.226 210.352 260.41 210.864 260.483C211.374 260.549 211.91 260.476 212.472 260.263C213.028 260.052 213.471 259.755 213.801 259.371C214.136 258.977 214.366 258.526 214.492 258.019C214.617 257.512 214.651 256.973 214.593 256.402C214.54 255.821 214.401 255.234 214.176 254.643L214.081 254.391C213.859 253.806 213.577 253.282 213.234 252.819C212.896 252.346 212.508 251.962 212.071 251.668C211.638 251.364 211.165 251.176 210.653 251.102C210.148 251.026 209.614 251.095 209.051 251.308C208.496 251.518 208.051 251.82 207.716 252.214C207.388 252.606 207.159 253.06 207.029 253.577C206.904 254.084 206.872 254.627 206.932 255.205C206.99 255.776 207.13 256.354 207.352 256.939ZM219.351 248.36L224.712 262.495L222.673 263.267L216.449 246.853L218.312 246.147L219.351 248.36ZM228.687 248.885L228.774 249.115C229.101 249.977 229.302 250.816 229.377 251.631C229.45 252.439 229.391 253.188 229.202 253.878C229.019 254.565 228.7 255.166 228.244 255.682C227.788 256.197 227.19 256.594 226.453 256.874C225.7 257.159 224.988 257.286 224.317 257.257C223.645 257.227 223.019 257.05 222.437 256.728C221.855 256.405 221.317 255.957 220.824 255.384C220.338 254.807 219.893 254.12 219.49 253.32L219.025 252.093C218.78 251.183 218.646 250.335 218.624 249.55C218.602 248.765 218.696 248.053 218.905 247.414C219.118 246.765 219.461 246.205 219.934 245.734C220.405 245.255 221.012 244.874 221.757 244.592C222.503 244.31 223.219 244.206 223.907 244.279C224.593 244.346 225.234 244.571 225.83 244.955C226.427 245.339 226.965 245.866 227.445 246.536C227.93 247.196 228.344 247.979 228.687 248.885ZM226.736 249.887L226.649 249.657C226.424 249.065 226.152 248.534 225.831 248.062C225.507 247.583 225.139 247.196 224.726 246.901C224.318 246.597 223.87 246.407 223.383 246.333C222.892 246.251 222.369 246.315 221.814 246.526C221.302 246.719 220.89 246.976 220.577 247.295C220.27 247.611 220.043 247.969 219.893 248.368C219.741 248.76 219.653 249.177 219.629 249.621C219.609 250.054 219.636 250.487 219.708 250.919L220.784 253.757C221.124 254.213 221.511 254.618 221.946 254.971C222.378 255.317 222.866 255.546 223.41 255.658C223.95 255.762 224.553 255.688 225.218 255.437C225.766 255.229 226.194 254.937 226.503 254.562C226.816 254.176 227.025 253.733 227.128 253.235C227.239 252.733 227.258 252.2 227.185 251.634C227.11 251.061 226.96 250.479 226.736 249.887ZM242.151 250.679L240.124 251.447L235.154 238.342C234.83 237.487 234.71 236.71 234.796 236.009C234.885 235.298 235.166 234.683 235.637 234.162C236.105 233.634 236.741 233.217 237.544 232.913C237.778 232.825 238.018 232.751 238.262 232.691C238.515 232.629 238.765 232.585 239.014 232.557L239.532 234.253C239.364 234.275 239.179 234.316 238.976 234.376C238.781 234.433 238.588 234.498 238.398 234.57C237.967 234.733 237.628 234.962 237.38 235.256C237.137 235.54 236.997 235.877 236.961 236.267C236.925 236.656 236.999 237.092 237.181 237.574L242.151 250.679ZM240.176 237.869L240.766 239.425L234.344 241.857L233.753 240.301L240.176 237.869ZM245.167 238.109L248.957 248.102L246.929 248.87L242.433 237.014L244.406 236.267L245.167 238.109ZM248.14 234.778L248.844 236.667C248.662 236.694 248.493 236.733 248.337 236.784C248.185 236.824 248.014 236.881 247.824 236.953C247.357 237.13 246.972 237.359 246.669 237.641C246.366 237.922 246.141 238.242 245.992 238.599C245.843 238.956 245.765 239.345 245.758 239.765C245.755 240.176 245.813 240.605 245.932 241.052L245.487 241.597C245.216 240.881 245.03 240.183 244.931 239.502C244.839 238.818 244.851 238.179 244.968 237.583C245.082 236.98 245.318 236.457 245.675 236.012C246.038 235.557 246.54 235.208 247.183 234.965C247.33 234.91 247.504 234.864 247.708 234.829C247.909 234.786 248.053 234.769 248.14 234.778ZM252.242 233.3L256.738 245.156L254.7 245.928L250.204 234.072L252.242 233.3ZM248.858 230.985C248.733 230.657 248.726 230.342 248.838 230.04C248.956 229.737 249.213 229.51 249.608 229.361C249.995 229.214 250.334 229.215 250.624 229.364C250.922 229.51 251.133 229.748 251.258 230.077C251.377 230.391 251.373 230.701 251.247 231.008C251.126 231.304 250.872 231.526 250.484 231.673C250.09 231.822 249.749 231.826 249.461 231.684C249.178 231.532 248.977 231.299 248.858 230.985ZM264.997 242.279C264.171 242.592 263.37 242.737 262.592 242.714C261.819 242.681 261.095 242.5 260.419 242.171C259.75 241.839 259.155 241.371 258.633 240.767C258.111 240.163 257.693 239.444 257.377 238.611L257.202 238.151C256.837 237.187 256.654 236.274 256.653 235.414C256.65 234.547 256.794 233.757 257.084 233.046C257.374 232.334 257.778 231.726 258.297 231.221C258.815 230.715 259.407 230.337 260.072 230.085C260.919 229.764 261.705 229.633 262.43 229.693C263.162 229.75 263.825 229.967 264.419 230.344C265.01 230.713 265.535 231.216 265.993 231.853C266.449 232.482 266.835 233.213 267.151 234.046L267.496 234.955L258.641 238.308L258.013 236.654L264.841 234.068L264.783 233.915C264.554 233.4 264.251 232.93 263.872 232.505C263.501 232.078 263.054 231.779 262.53 231.61C262.006 231.441 261.397 231.488 260.703 231.75C260.243 231.925 259.857 232.184 259.544 232.528C259.229 232.864 259.005 233.275 258.871 233.76C258.737 234.245 258.698 234.79 258.752 235.396C258.806 236.002 258.969 236.663 259.241 237.379L259.415 237.839C259.629 238.402 259.906 238.902 260.248 239.341C260.594 239.77 260.988 240.113 261.429 240.373C261.877 240.629 262.357 240.781 262.868 240.83C263.387 240.876 263.924 240.794 264.479 240.583C265.195 240.312 265.746 239.937 266.132 239.456C266.518 238.976 266.805 238.421 266.992 237.79L268.589 238.3C268.48 238.784 268.295 239.276 268.033 239.776C267.772 240.276 267.394 240.745 266.9 241.183C266.413 241.618 265.779 241.983 264.997 242.279ZM270.386 229.325L273.922 238.649L271.895 239.417L267.399 227.561L269.317 226.835L270.386 229.325ZM271.022 232.455L270.166 232.741C269.865 231.928 269.702 231.133 269.675 230.358C269.646 229.576 269.746 228.849 269.976 228.177C270.206 227.505 270.561 226.92 271.04 226.421C271.524 225.912 272.123 225.522 272.839 225.251C273.424 225.029 273.98 224.91 274.509 224.894C275.035 224.87 275.527 224.968 275.986 225.187C276.452 225.403 276.877 225.752 277.26 226.233C277.641 226.707 277.979 227.335 278.275 228.117L281.221 235.886L279.183 236.657L276.229 228.867C275.993 228.246 275.713 227.784 275.39 227.48C275.063 227.17 274.692 226.997 274.278 226.961C273.861 226.919 273.396 226.994 272.885 227.188C272.381 227.379 271.961 227.659 271.624 228.029C271.296 228.396 271.052 228.822 270.894 229.308C270.743 229.791 270.675 230.306 270.69 230.851C270.709 231.387 270.82 231.921 271.022 232.455ZM290.903 229.588L285.393 215.059L287.431 214.287L293.814 231.118L291.951 231.823L290.903 229.588ZM281.599 229.114L281.512 228.884C281.168 227.978 280.966 227.115 280.905 226.294C280.849 225.463 280.925 224.704 281.132 224.015C281.346 223.325 281.684 222.729 282.146 222.228C282.612 221.717 283.2 221.328 283.908 221.059C284.654 220.777 285.354 220.662 286.009 220.715C286.668 220.758 287.286 220.954 287.862 221.304C288.442 221.644 288.977 222.119 289.466 222.727C289.956 223.335 290.411 224.061 290.831 224.904L291.213 225.912C291.462 226.812 291.602 227.653 291.631 228.436C291.668 229.215 291.582 229.924 291.373 230.563C291.171 231.199 290.839 231.755 290.376 232.231C289.91 232.7 289.301 233.077 288.549 233.362C287.855 233.625 287.162 233.716 286.471 233.635C285.788 233.551 285.135 233.318 284.514 232.935C283.9 232.549 283.341 232.034 282.838 231.389C282.339 230.734 281.926 229.976 281.599 229.114ZM283.55 228.112L283.637 228.342C283.862 228.934 284.131 229.467 284.444 229.941C284.765 230.413 285.128 230.798 285.533 231.095C285.939 231.393 286.382 231.58 286.862 231.657C287.34 231.727 287.853 231.658 288.4 231.451C289.073 231.196 289.57 230.845 289.893 230.397C290.224 229.946 290.432 229.437 290.517 228.87C290.603 228.303 290.615 227.717 290.554 227.114L289.552 224.474C289.312 224.105 289.037 223.766 288.728 223.457C288.423 223.138 288.084 222.883 287.71 222.69C287.341 222.487 286.933 222.37 286.487 222.339C286.048 222.304 285.572 222.384 285.061 222.578C284.506 222.788 284.071 223.086 283.758 223.472C283.449 223.848 283.243 224.285 283.14 224.784C283.034 225.275 283.018 225.807 283.094 226.38C283.174 226.943 283.326 227.52 283.55 228.112ZM292.791 212.258L299.173 229.088L297.135 229.86L290.752 213.03L292.791 212.258ZM305.294 225.367L304.562 213.49L306.732 212.668L307.166 228.155C307.167 228.488 307.14 228.858 307.085 229.263C307.04 229.673 306.937 230.084 306.775 230.495C306.614 230.907 306.372 231.283 306.049 231.622C305.737 231.966 305.311 232.24 304.77 232.445C304.609 232.506 304.396 232.562 304.131 232.612C303.866 232.662 303.677 232.692 303.564 232.701L302.929 231.062C302.991 231.047 303.085 231.02 303.212 230.98C303.349 230.945 303.443 230.918 303.494 230.898C303.954 230.724 304.322 230.514 304.596 230.268C304.873 230.029 305.067 229.726 305.178 229.358C305.3 228.995 305.348 228.538 305.323 227.988L305.294 225.367ZM298.842 215.656L305.412 223.694L306.748 225.631L305.573 226.928L296.628 216.494L298.842 215.656ZM158.546 303.566L159.177 305.232L153.829 307.257L153.198 305.591L158.546 303.566ZM166.604 295.666L168.445 294.969L172.846 306.573C173.242 307.617 173.368 308.589 173.224 309.487C173.08 310.385 172.7 311.168 172.084 311.836C171.478 312.508 170.682 313.03 169.696 313.404C169.287 313.559 168.78 313.676 168.175 313.754C167.579 313.838 166.957 313.827 166.307 313.722C165.668 313.622 165.072 313.384 164.52 313.008L165.126 311.4C165.85 311.811 166.527 312.031 167.156 312.06C167.793 312.086 168.378 311.998 168.911 311.797C169.554 311.553 170.063 311.222 170.44 310.804C170.816 310.386 171.042 309.891 171.117 309.32C171.203 308.752 171.116 308.126 170.855 307.439L167.407 298.344L166.604 295.666ZM160.737 304.817L160.65 304.587C160.306 303.681 160.101 302.819 160.033 302.001C159.969 301.173 160.037 300.416 160.237 299.731C160.444 299.043 160.782 298.447 161.251 297.943C161.718 297.433 162.312 297.04 163.036 296.766C163.781 296.484 164.481 296.369 165.136 296.422C165.796 296.465 166.413 296.661 166.989 297.011C167.569 297.351 168.104 297.825 168.594 298.434C169.083 299.042 169.538 299.768 169.958 300.611L170.34 301.619C170.59 302.519 170.729 303.36 170.758 304.142C170.795 304.922 170.709 305.631 170.5 306.27C170.298 306.906 169.966 307.462 169.503 307.938C169.038 308.407 168.429 308.784 167.676 309.069C166.967 309.337 166.268 309.431 165.577 309.35C164.893 309.266 164.245 309.031 163.63 308.646C163.016 308.26 162.461 307.744 161.965 307.096C161.473 306.439 161.064 305.679 160.737 304.817ZM162.677 303.819L162.765 304.049C162.989 304.641 163.258 305.174 163.571 305.648C163.892 306.12 164.252 306.506 164.65 306.806C165.055 307.104 165.498 307.291 165.978 307.368C166.456 307.438 166.969 307.369 167.517 307.162C168.189 306.907 168.69 306.555 169.021 306.104C169.351 305.653 169.555 305.145 169.634 304.581C169.719 304.014 169.732 303.429 169.67 302.825L168.668 300.185C168.436 299.813 168.165 299.473 167.855 299.164C167.551 298.845 167.211 298.589 166.837 298.397C166.468 298.194 166.06 298.077 165.614 298.046C165.168 298.014 164.689 298.095 164.177 298.289C163.622 298.499 163.188 298.797 162.874 299.183C162.566 299.559 162.36 299.996 162.256 300.495C162.158 300.983 162.146 301.514 162.221 302.087C162.301 302.65 162.453 303.227 162.677 303.819ZM171.841 287.994L178.224 304.824L176.185 305.596L169.803 288.766L171.841 287.994ZM187.695 298.106L184.238 288.989L186.276 288.217L190.772 300.073L188.832 300.808L187.695 298.106ZM187.131 295.462L187.967 295.121C188.266 295.91 188.459 296.672 188.546 297.408C188.637 298.133 188.593 298.81 188.413 299.438C188.233 300.065 187.9 300.63 187.414 301.132C186.924 301.626 186.256 302.034 185.408 302.355C184.831 302.573 184.27 302.69 183.724 302.704C183.185 302.716 182.678 302.612 182.201 302.391C181.725 302.17 181.285 301.815 180.882 301.324C180.486 300.831 180.138 300.19 179.839 299.401L176.939 291.753L178.966 290.985L181.875 298.655C182.077 299.188 182.303 299.608 182.553 299.915C182.807 300.211 183.076 300.423 183.358 300.55C183.645 300.667 183.931 300.717 184.217 300.701C184.511 300.681 184.796 300.619 185.074 300.514C185.936 300.188 186.557 299.765 186.936 299.245C187.313 298.718 187.504 298.132 187.51 297.486C187.521 296.831 187.394 296.156 187.131 295.462ZM194.331 285.167L194.921 286.723L188.51 289.151L187.92 287.595L194.331 285.167ZM188.997 283.891L191.025 283.124L195.5 294.925C195.652 295.327 195.829 295.606 196.031 295.764C196.233 295.921 196.445 295.995 196.667 295.987C196.889 295.978 197.114 295.93 197.34 295.844C197.508 295.781 197.678 295.7 197.85 295.601C198.026 295.493 198.157 295.41 198.244 295.352L198.882 297.002C198.741 297.114 198.547 297.242 198.3 297.385C198.064 297.533 197.763 297.677 197.398 297.815C196.901 298.003 196.407 298.077 195.916 298.038C195.425 297.998 194.968 297.795 194.545 297.429C194.126 297.053 193.767 296.47 193.468 295.681L188.997 283.891ZM206.209 294.479C205.384 294.791 204.582 294.936 203.805 294.913C203.032 294.88 202.307 294.699 201.631 294.37C200.962 294.038 200.367 293.571 199.846 292.966C199.324 292.362 198.905 291.643 198.589 290.81L198.415 290.35C198.049 289.386 197.866 288.474 197.866 287.613C197.863 286.746 198.006 285.956 198.296 285.245C198.586 284.534 198.991 283.925 199.509 283.42C200.028 282.914 200.619 282.536 201.284 282.284C202.132 281.963 202.918 281.833 203.642 281.892C204.374 281.949 205.037 282.166 205.631 282.543C206.222 282.912 206.747 283.415 207.206 284.052C207.662 284.681 208.048 285.412 208.363 286.245L208.708 287.154L199.853 290.507L199.226 288.853L206.053 286.267L205.995 286.114C205.767 285.599 205.463 285.129 205.085 284.704C204.714 284.277 204.266 283.978 203.743 283.809C203.219 283.64 202.61 283.687 201.916 283.95C201.456 284.124 201.069 284.383 200.757 284.727C200.441 285.063 200.217 285.474 200.083 285.959C199.95 286.444 199.91 286.989 199.965 287.595C200.019 288.201 200.182 288.862 200.453 289.578L200.628 290.038C200.841 290.601 201.119 291.101 201.46 291.54C201.807 291.969 202.2 292.313 202.641 292.572C203.089 292.828 203.569 292.98 204.081 293.029C204.599 293.075 205.136 292.993 205.692 292.783C206.408 292.511 206.959 292.136 207.345 291.655C207.731 291.175 208.017 290.62 208.204 289.989L209.801 290.5C209.693 290.984 209.507 291.476 209.246 291.976C208.984 292.476 208.606 292.944 208.112 293.382C207.625 293.817 206.991 294.183 206.209 294.479ZM211.599 281.524L215.135 290.848L213.107 291.616L208.612 279.76L210.529 279.034L211.599 281.524ZM212.234 284.654L211.378 284.94C211.078 284.127 210.914 283.332 210.888 282.557C210.859 281.775 210.959 281.048 211.189 280.376C211.418 279.704 211.773 279.119 212.252 278.62C212.736 278.111 213.336 277.721 214.052 277.45C214.636 277.228 215.193 277.11 215.722 277.093C216.247 277.07 216.74 277.167 217.199 277.386C217.665 277.602 218.09 277.951 218.473 278.432C218.853 278.906 219.191 279.534 219.488 280.316L222.434 288.085L220.395 288.857L217.441 281.066C217.206 280.445 216.926 279.983 216.602 279.679C216.275 279.369 215.905 279.196 215.49 279.161C215.073 279.118 214.609 279.194 214.097 279.387C213.593 279.578 213.173 279.858 212.837 280.228C212.508 280.595 212.265 281.021 212.106 281.507C211.955 281.99 211.887 282.505 211.902 283.05C211.921 283.586 212.032 284.121 212.234 284.654ZM234.106 283.665L232.078 284.433L227.109 271.328C226.784 270.473 226.665 269.696 226.75 268.995C226.84 268.285 227.12 267.669 227.591 267.148C228.06 266.62 228.695 266.204 229.499 265.899C229.733 265.811 229.972 265.737 230.217 265.678C230.469 265.615 230.72 265.571 230.968 265.543L231.486 267.24C231.319 267.261 231.134 267.302 230.931 267.362C230.736 267.419 230.543 267.484 230.353 267.556C229.922 267.719 229.583 267.948 229.335 268.242C229.092 268.526 228.952 268.863 228.916 269.253C228.88 269.642 228.953 270.078 229.136 270.56L234.106 283.665ZM232.13 270.855L232.721 272.411L226.298 274.843L225.708 273.287L232.13 270.855ZM237.122 271.095L240.912 281.088L238.884 281.856L234.388 270L236.361 269.253L237.122 271.095ZM240.095 267.764L240.799 269.653C240.617 269.68 240.448 269.719 240.292 269.77C240.14 269.811 239.969 269.867 239.779 269.939C239.312 270.116 238.926 270.345 238.624 270.627C238.321 270.909 238.096 271.228 237.947 271.585C237.798 271.942 237.72 272.331 237.712 272.751C237.709 273.162 237.768 273.591 237.887 274.038L237.442 274.583C237.17 273.867 236.985 273.169 236.886 272.488C236.794 271.804 236.806 271.165 236.923 270.569C237.037 269.966 237.272 269.443 237.63 268.998C237.993 268.544 238.495 268.195 239.138 267.951C239.284 267.896 239.459 267.85 239.663 267.815C239.864 267.772 240.008 267.755 240.095 267.764ZM251.275 277.415C250.449 277.728 249.647 277.873 248.87 277.849C248.097 277.816 247.373 277.635 246.696 277.307C246.028 276.975 245.432 276.507 244.911 275.903C244.389 275.298 243.97 274.58 243.655 273.747L243.48 273.287C243.114 272.322 242.931 271.41 242.931 270.55C242.928 269.682 243.071 268.893 243.361 268.181C243.651 267.47 244.056 266.862 244.574 266.356C245.093 265.851 245.685 265.472 246.349 265.221C247.197 264.9 247.983 264.769 248.708 264.829C249.439 264.886 250.102 265.103 250.696 265.479C251.288 265.849 251.812 266.352 252.271 266.988C252.727 267.618 253.113 268.349 253.429 269.181L253.774 270.091L244.918 273.444L244.291 271.789L251.119 269.204L251.06 269.051C250.832 268.536 250.528 268.066 250.15 267.641C249.779 267.213 249.332 266.915 248.808 266.746C248.284 266.577 247.675 266.623 246.981 266.886C246.521 267.06 246.134 267.319 245.822 267.663C245.507 268 245.282 268.411 245.149 268.896C245.015 269.381 244.976 269.926 245.03 270.532C245.084 271.138 245.247 271.799 245.519 272.515L245.693 272.975C245.906 273.537 246.184 274.038 246.526 274.477C246.872 274.905 247.266 275.249 247.706 275.508C248.155 275.765 248.634 275.917 249.146 275.966C249.665 276.012 250.202 275.929 250.757 275.719C251.473 275.448 252.024 275.072 252.41 274.592C252.796 274.112 253.082 273.556 253.269 272.926L254.867 273.436C254.758 273.92 254.573 274.412 254.311 274.912C254.049 275.412 253.672 275.881 253.177 276.319C252.691 276.754 252.056 277.119 251.275 277.415ZM263.177 272.909C262.351 273.221 261.549 273.366 260.772 273.343C259.999 273.31 259.275 273.129 258.598 272.8C257.93 272.469 257.334 272.001 256.813 271.396C256.291 270.792 255.872 270.073 255.557 269.24L255.382 268.78C255.016 267.816 254.833 266.904 254.833 266.043C254.83 265.176 254.973 264.386 255.263 263.675C255.553 262.964 255.958 262.355 256.476 261.85C256.995 261.344 257.587 260.966 258.251 260.714C259.099 260.393 259.885 260.263 260.609 260.322C261.341 260.379 262.004 260.596 262.598 260.973C263.189 261.342 263.714 261.845 264.173 262.482C264.629 263.111 265.015 263.842 265.331 264.675L265.676 265.584L256.82 268.937L256.193 267.283L263.021 264.697L262.962 264.544C262.734 264.029 262.43 263.559 262.052 263.135C261.681 262.707 261.233 262.409 260.71 262.239C260.186 262.07 259.577 262.117 258.883 262.38C258.423 262.554 258.036 262.813 257.724 263.157C257.409 263.493 257.184 263.904 257.051 264.389C256.917 264.874 256.877 265.42 256.932 266.025C256.986 266.631 257.149 267.292 257.42 268.008L257.595 268.468C257.808 269.031 258.086 269.532 258.428 269.97C258.774 270.399 259.168 270.743 259.608 271.002C260.057 271.258 260.536 271.411 261.048 271.459C261.566 271.505 262.103 271.423 262.659 271.213C263.375 270.941 263.926 270.566 264.312 270.085C264.698 269.605 264.984 269.05 265.171 268.419L266.769 268.93C266.66 269.414 266.475 269.906 266.213 270.406C265.951 270.906 265.574 271.375 265.079 271.812C264.593 272.247 263.958 272.613 263.177 272.909ZM168.474 329.747L169.106 331.413L163.757 333.438L163.126 331.772L168.474 329.747ZM179.569 331.937L177.255 325.834C177.077 325.366 176.829 324.997 176.508 324.725C176.193 324.444 175.813 324.279 175.368 324.23C174.923 324.181 174.427 324.26 173.879 324.468C173.368 324.661 172.951 324.919 172.631 325.241C172.317 325.56 172.105 325.904 171.994 326.272C171.89 326.637 171.9 326.984 172.025 327.312L169.998 328.08C169.837 327.656 169.787 327.195 169.848 326.696C169.91 326.196 170.081 325.701 170.363 325.21C170.649 324.709 171.044 324.251 171.546 323.835C172.053 323.409 172.664 323.061 173.38 322.789C174.243 322.463 175.058 322.321 175.826 322.365C176.602 322.405 177.288 322.651 177.885 323.101C178.487 323.542 178.955 324.204 179.29 325.088L181.385 330.61C181.534 331.005 181.726 331.412 181.961 331.833C182.203 332.251 182.454 332.594 182.715 332.863L182.782 333.039L180.666 333.839C180.476 333.644 180.277 333.364 180.072 332.999C179.864 332.627 179.696 332.273 179.569 331.937ZM177.963 326.643L178.525 328.059L176.475 328.835C175.898 329.054 175.401 329.296 174.984 329.563C174.564 329.822 174.236 330.101 173.998 330.4C173.76 330.699 173.614 331.017 173.558 331.356C173.5 331.687 173.54 332.035 173.679 332.4C173.82 332.773 174.033 333.081 174.317 333.324C174.602 333.567 174.946 333.716 175.352 333.772C175.762 333.817 176.215 333.746 176.712 333.557C177.333 333.322 177.831 332.983 178.206 332.54C178.581 332.098 178.836 331.634 178.969 331.149C179.11 330.661 179.124 330.234 179.01 329.868L180.246 330.515C180.311 330.841 180.301 331.234 180.216 331.692C180.13 332.15 179.963 332.623 179.713 333.11C179.468 333.587 179.129 334.037 178.696 334.46C178.268 334.873 177.732 335.201 177.089 335.445C176.285 335.749 175.521 335.859 174.795 335.774C174.077 335.687 173.45 335.444 172.915 335.045C172.384 334.637 171.993 334.103 171.744 333.446C171.503 332.81 171.415 332.205 171.481 331.628C171.544 331.045 171.748 330.504 172.094 330.006C172.437 329.5 172.905 329.038 173.499 328.621C174.093 328.204 174.795 327.842 175.606 327.535L177.963 326.643ZM196.834 324.122C196.723 323.829 196.555 323.584 196.329 323.385C196.108 323.177 195.761 323.045 195.289 322.99C194.821 322.925 194.168 322.963 193.328 323.106C192.618 323.216 191.96 323.277 191.354 323.289C190.756 323.298 190.22 323.238 189.745 323.109C189.277 322.977 188.875 322.766 188.539 322.475C188.203 322.185 187.943 321.795 187.757 321.306C187.58 320.838 187.515 320.357 187.561 319.863C187.615 319.367 187.771 318.886 188.029 318.421C188.295 317.953 188.663 317.525 189.134 317.138C189.606 316.75 190.174 316.431 190.839 316.179C191.789 315.819 192.663 315.68 193.463 315.762C194.263 315.843 194.948 316.098 195.519 316.524C196.088 316.944 196.501 317.494 196.759 318.173L194.731 318.941C194.606 318.612 194.387 318.331 194.074 318.099C193.765 317.857 193.385 317.704 192.935 317.641C192.492 317.575 192.004 317.643 191.47 317.844C190.908 318.058 190.484 318.318 190.2 318.626C189.921 318.924 189.75 319.235 189.689 319.559C189.635 319.88 189.664 320.187 189.775 320.479C189.858 320.698 189.969 320.881 190.109 321.029C190.253 321.167 190.451 321.271 190.704 321.343C190.954 321.407 191.281 321.433 191.686 321.422C192.092 321.41 192.595 321.362 193.198 321.275C194.253 321.127 195.152 321.087 195.897 321.156C196.642 321.225 197.252 321.424 197.728 321.753C198.204 322.082 198.562 322.565 198.803 323.2C199 323.719 199.07 324.235 199.014 324.749C198.966 325.261 198.797 325.751 198.507 326.22C198.221 326.679 197.83 327.102 197.334 327.491C196.843 327.869 196.25 328.19 195.556 328.452C194.511 328.848 193.556 328.996 192.692 328.898C191.827 328.799 191.096 328.524 190.499 328.074C189.902 327.623 189.479 327.069 189.23 326.412L191.268 325.64C191.508 326.184 191.836 326.565 192.253 326.783C192.667 326.994 193.113 327.088 193.589 327.067C194.063 327.038 194.508 326.945 194.924 326.787C195.479 326.577 195.916 326.328 196.233 326.041C196.557 325.751 196.77 325.441 196.87 325.11C196.971 324.78 196.958 324.45 196.834 324.122ZM200.424 312.8L204.92 324.656L202.881 325.428L198.385 313.572L200.424 312.8ZM197.039 310.486C196.915 310.157 196.908 309.842 197.019 309.541C197.138 309.237 197.395 309.01 197.789 308.861C198.177 308.714 198.515 308.715 198.806 308.864C199.104 309.011 199.315 309.248 199.439 309.577C199.559 309.891 199.555 310.201 199.429 310.508C199.308 310.805 199.053 311.026 198.666 311.173C198.272 311.322 197.93 311.326 197.643 311.184C197.36 311.033 197.158 310.8 197.039 310.486ZM206.589 313.16L210.191 322.66L208.153 323.432L203.657 311.576L205.586 310.846L206.589 313.16ZM207.356 316.441L206.401 316.765C206.101 315.951 205.923 315.162 205.867 314.398C205.809 313.627 205.884 312.909 206.091 312.246C206.299 311.582 206.65 310.998 207.144 310.494C207.635 309.982 208.275 309.577 209.064 309.278C209.62 309.068 210.162 308.955 210.69 308.938C211.216 308.915 211.714 309.006 212.185 309.212C212.656 309.418 213.086 309.748 213.475 310.202C213.865 310.656 214.201 311.255 214.483 312L217.479 319.901L215.452 320.668L212.493 312.867C212.258 312.246 211.963 311.789 211.61 311.497C211.264 311.202 210.87 311.042 210.426 311.018C209.98 310.987 209.501 311.068 208.989 311.261C208.39 311.488 207.93 311.784 207.608 312.148C207.287 312.512 207.076 312.925 206.976 313.389C206.877 313.853 206.863 314.347 206.936 314.871C207.014 315.384 207.154 315.907 207.356 316.441ZM214.615 312.414L213.414 313.345C213.175 312.692 213.044 312.028 213.021 311.351C213.006 310.672 213.107 310.024 213.324 309.407C213.549 308.787 213.902 308.232 214.384 307.74C214.863 307.241 215.479 306.849 216.232 306.564C216.868 306.324 217.462 306.195 218.015 306.177C218.576 306.157 219.091 306.259 219.56 306.482C220.033 306.695 220.46 307.039 220.84 307.513C221.221 307.987 221.552 308.597 221.835 309.342L224.789 317.133L222.751 317.905L219.788 310.092C219.536 309.427 219.235 308.952 218.884 308.667C218.539 308.372 218.148 308.224 217.713 308.221C217.282 308.209 216.807 308.301 216.288 308.498C215.843 308.666 215.477 308.892 215.192 309.176C214.907 309.459 214.698 309.78 214.567 310.139C214.433 310.491 214.369 310.862 214.375 311.252C214.388 311.64 214.468 312.027 214.615 312.414ZM226.254 305.627L231.614 319.762L229.575 320.533L223.351 304.119L225.214 303.414L226.254 305.627ZM235.589 306.152L235.677 306.382C236.004 307.244 236.205 308.082 236.28 308.898C236.352 309.706 236.294 310.454 236.104 311.144C235.922 311.832 235.603 312.433 235.146 312.948C234.69 313.463 234.093 313.861 233.355 314.14C232.602 314.425 231.89 314.553 231.219 314.523C230.548 314.493 229.921 314.317 229.339 313.994C228.757 313.671 228.22 313.223 227.726 312.65C227.241 312.074 226.796 311.386 226.392 310.586L225.927 309.359C225.682 308.449 225.549 307.602 225.527 306.817C225.505 306.031 225.598 305.319 225.807 304.68C226.021 304.032 226.364 303.471 226.837 303C227.307 302.521 227.915 302.141 228.66 301.858C229.405 301.576 230.122 301.472 230.81 301.546C231.495 301.612 232.136 301.837 232.733 302.221C233.329 302.605 233.868 303.132 234.348 303.802C234.832 304.463 235.246 305.246 235.589 306.152ZM233.638 307.154L233.551 306.923C233.327 306.332 233.054 305.8 232.733 305.328C232.409 304.85 232.041 304.463 231.629 304.168C231.221 303.863 230.773 303.673 230.285 303.599C229.794 303.517 229.272 303.582 228.716 303.792C228.205 303.986 227.792 304.242 227.479 304.561C227.173 304.878 226.945 305.235 226.796 305.634C226.643 306.026 226.555 306.444 226.531 306.887C226.512 307.321 226.538 307.754 226.61 308.186L227.686 311.024C228.026 311.48 228.414 311.884 228.848 312.238C229.28 312.584 229.768 312.812 230.312 312.924C230.853 313.028 231.456 312.955 232.121 312.703C232.669 312.495 233.097 312.204 233.406 311.828C233.719 311.442 233.927 311 234.03 310.501C234.141 310 234.16 309.466 234.088 308.901C234.012 308.328 233.863 307.745 233.638 307.154ZM236.282 293.534L242.664 310.365L240.626 311.137L234.243 294.306L236.282 293.534ZM250.923 307.488C250.097 307.801 249.296 307.946 248.518 307.923C247.745 307.889 247.021 307.708 246.345 307.38C245.676 307.048 245.081 306.58 244.559 305.976C244.037 305.371 243.619 304.653 243.303 303.82L243.128 303.36C242.763 302.395 242.58 301.483 242.579 300.623C242.576 299.755 242.72 298.966 243.01 298.255C243.3 297.543 243.704 296.935 244.223 296.429C244.741 295.924 245.333 295.545 245.998 295.294C246.845 294.973 247.631 294.842 248.356 294.902C249.088 294.959 249.751 295.176 250.345 295.552C250.936 295.922 251.461 296.425 251.919 297.061C252.375 297.691 252.761 298.422 253.077 299.255L253.422 300.164L244.567 303.517L243.939 301.862L250.767 299.277L250.709 299.124C250.48 298.609 250.177 298.139 249.798 297.714C249.427 297.287 248.98 296.988 248.456 296.819C247.932 296.65 247.323 296.696 246.629 296.959C246.169 297.134 245.783 297.393 245.47 297.736C245.155 298.073 244.931 298.484 244.797 298.969C244.663 299.454 244.624 299.999 244.678 300.605C244.732 301.211 244.895 301.872 245.167 302.588L245.341 303.048C245.555 303.611 245.832 304.111 246.174 304.55C246.52 304.978 246.914 305.322 247.355 305.581C247.803 305.838 248.283 305.99 248.794 306.039C249.313 306.085 249.85 306.002 250.405 305.792C251.121 305.521 251.672 305.145 252.058 304.665C252.444 304.185 252.731 303.629 252.918 302.999L254.515 303.509C254.406 303.993 254.221 304.485 253.959 304.985C253.698 305.485 253.32 305.954 252.826 306.392C252.339 306.827 251.705 307.192 250.923 307.488ZM256.995 285.691L259.033 284.92L264.543 299.449L265.241 301.816L263.377 302.522L256.995 285.691ZM271.142 292.69L271.229 292.92C271.556 293.782 271.757 294.621 271.832 295.436C271.905 296.244 271.846 296.993 271.657 297.683C271.467 298.373 271.144 298.975 270.688 299.491C270.231 300.006 269.634 300.403 268.896 300.683C268.144 300.968 267.434 301.09 266.767 301.05C266.105 301 265.487 300.804 264.915 300.461C264.342 300.118 263.807 299.644 263.31 299.039C262.82 298.431 262.367 297.709 261.949 296.872L261.567 295.864C261.322 294.955 261.182 294.11 261.145 293.33C261.116 292.548 261.202 291.838 261.403 291.202C261.602 290.559 261.935 290.003 262.4 289.534C262.863 289.058 263.467 288.679 264.212 288.397C264.958 288.115 265.674 288.011 266.362 288.084C267.047 288.151 267.685 288.377 268.274 288.764C268.871 289.148 269.413 289.673 269.9 290.341C270.384 291.001 270.798 291.784 271.142 292.69ZM269.191 293.692L269.103 293.462C268.879 292.87 268.614 292.336 268.307 291.859C267.998 291.374 267.648 290.98 267.258 290.677C266.864 290.367 266.427 290.173 265.947 290.096C265.464 290.012 264.934 290.079 264.356 290.297C263.845 290.491 263.433 290.747 263.119 291.066C262.813 291.383 262.585 291.741 262.436 292.14C262.283 292.531 262.195 292.949 262.171 293.393C262.152 293.826 262.178 294.259 262.25 294.691L263.252 297.332C263.562 297.799 263.939 298.22 264.382 298.595C264.83 298.96 265.333 299.208 265.893 299.339C266.459 299.467 267.075 299.405 267.74 299.153C268.288 298.946 268.714 298.659 269.018 298.294C269.327 297.918 269.527 297.487 269.618 297.001C269.717 296.513 269.727 295.987 269.647 295.424C269.567 294.861 269.415 294.284 269.191 293.692ZM271.812 280.081L278.195 296.912L276.156 297.683L269.774 280.853L271.812 280.081ZM278.714 290.086L278.619 289.834C278.295 288.979 278.118 288.14 278.09 287.315C278.058 286.483 278.174 285.709 278.437 284.991C278.696 284.266 279.102 283.628 279.653 283.077C280.202 282.518 280.889 282.083 281.715 281.77C282.547 281.455 283.355 281.324 284.136 281.379C284.922 281.424 285.652 281.632 286.327 282.003C287.007 282.364 287.611 282.866 288.14 283.51C288.665 284.146 289.09 284.892 289.414 285.747L289.509 285.999C289.834 286.853 290.01 287.693 290.039 288.517C290.067 289.342 289.948 290.118 289.681 290.846C289.418 291.563 289.013 292.201 288.464 292.76C287.92 293.308 287.232 293.74 286.399 294.056C285.566 294.371 284.76 294.505 283.982 294.457C283.2 294.402 282.47 294.194 281.79 293.834C281.115 293.463 280.514 292.959 279.989 292.323C279.463 291.686 279.039 290.941 278.714 290.086ZM280.646 289.066L280.742 289.318C280.966 289.91 281.248 290.443 281.586 290.916C281.921 291.382 282.304 291.763 282.734 292.06C283.171 292.354 283.646 292.537 284.159 292.611C284.668 292.677 285.204 292.603 285.767 292.39C286.322 292.18 286.765 291.883 287.096 291.499C287.431 291.104 287.661 290.654 287.786 290.147C287.912 289.64 287.945 289.101 287.888 288.53C287.834 287.949 287.695 287.362 287.471 286.77L287.375 286.518C287.154 285.934 286.872 285.41 286.529 284.947C286.191 284.473 285.803 284.09 285.365 283.796C284.933 283.492 284.46 283.303 283.948 283.23C283.443 283.154 282.909 283.222 282.346 283.435C281.791 283.646 281.346 283.948 281.011 284.342C280.683 284.734 280.454 285.188 280.324 285.705C280.199 286.212 280.166 286.754 280.227 287.333C280.285 287.904 280.425 288.482 280.646 289.066ZM297.437 276.068L299.278 275.37L303.678 286.974C304.074 288.019 304.201 288.99 304.057 289.888C303.913 290.787 303.533 291.57 302.917 292.237C302.311 292.909 301.515 293.432 300.529 293.806C300.12 293.96 299.612 294.077 299.007 294.156C298.412 294.239 297.79 294.229 297.14 294.124C296.501 294.023 295.905 293.785 295.353 293.41L295.959 291.802C296.683 292.213 297.359 292.433 297.989 292.462C298.625 292.488 299.21 292.4 299.744 292.198C300.387 291.955 300.896 291.624 301.272 291.206C301.649 290.788 301.875 290.293 301.95 289.721C302.036 289.154 301.949 288.527 301.688 287.841L298.239 278.746L297.437 276.068ZM291.57 285.218L291.483 284.988C291.139 284.083 290.933 283.221 290.865 282.403C290.802 281.575 290.87 280.818 291.07 280.132C291.277 279.444 291.615 278.848 292.084 278.345C292.55 277.834 293.145 277.442 293.869 277.168C294.614 276.886 295.314 276.771 295.969 276.824C296.628 276.866 297.246 277.063 297.822 277.413C298.402 277.753 298.937 278.227 299.426 278.835C299.916 279.444 300.371 280.169 300.791 281.013L301.173 282.021C301.423 282.92 301.562 283.762 301.591 284.544C301.628 285.324 301.542 286.033 301.333 286.672C301.131 287.308 300.799 287.864 300.336 288.34C299.87 288.809 299.261 289.185 298.509 289.47C297.8 289.739 297.1 289.832 296.41 289.751C295.726 289.668 295.077 289.433 294.463 289.047C293.849 288.662 293.294 288.145 292.798 287.498C292.306 286.84 291.897 286.08 291.57 285.218ZM293.51 284.221L293.597 284.451C293.822 285.042 294.091 285.575 294.404 286.05C294.725 286.521 295.085 286.907 295.483 287.208C295.888 287.506 296.331 287.693 296.811 287.77C297.289 287.84 297.802 287.771 298.35 287.563C299.022 287.309 299.523 286.956 299.853 286.505C300.184 286.054 300.388 285.547 300.467 284.982C300.552 284.415 300.564 283.83 300.503 283.227L299.501 280.586C299.269 280.215 298.998 279.875 298.688 279.566C298.383 279.247 298.044 278.991 297.67 278.799C297.301 278.596 296.893 278.479 296.447 278.447C296 278.416 295.521 278.497 295.01 278.691C294.455 278.901 294.02 279.199 293.707 279.585C293.399 279.961 293.193 280.398 293.089 280.896C292.99 281.385 292.979 281.916 293.054 282.489C293.134 283.052 293.286 283.629 293.51 284.221Z" fill="#3A3A3A"/>
</svg>
