<svg width="74" height="94" viewBox="0 0 74 94" fill="none" xmlns="http://www.w3.org/2000/svg">
<path d="M50.1353 60.1562H37.979L37.979 55.25H50.1353C52.4894 55.25 54.3957 54.875 55.854 54.125C57.3123 53.375 58.3748 52.3333 59.0415 51C59.729 49.6667 60.0728 48.1458 60.0728 46.4375C60.0728 44.875 59.729 43.4062 59.0415 42.0312C58.3748 40.6562 57.3123 39.5521 55.854 38.7188C54.3957 37.8646 52.4894 37.4375 50.1353 37.4375H39.3853L39.3853 78H33.354L33.354 32.5H50.1353C53.5728 32.5 56.479 33.0938 58.854 34.2812C61.229 35.4688 63.0311 37.1146 64.2603 39.2188C65.4894 41.3021 66.104 43.6875 66.104 46.375C66.104 49.2917 65.4894 51.7812 64.2603 53.8438C63.0311 55.9062 61.229 57.4792 58.854 58.5625C56.479 59.625 53.5728 60.1562 50.1353 60.1562Z" fill="black"/>
<path d="M22.0938 13.5L22.0938 59H16.1563L16.1563 13.5H22.0938ZM36.7188 13.5V18.4375H1.5625L1.5625 13.5L36.7188 13.5Z" fill="black"/>
</svg>
