<svg width="267" height="244" viewBox="0 0 267 244" fill="none" xmlns="http://www.w3.org/2000/svg">
<path d="M266 166L184 1L5.5 61L80.5 229L266 166Z" fill="white" stroke="black"/>
<path d="M266 179L78 242.5L1.5 75.5L5 61.5L80.5 229L266 166.5V179Z" fill="#D5CDCD" fill-opacity="0.29"/>
<path d="M80.5 229L78 242.5M80.5 229L266 166.5V179L78 242.5M80.5 229L5 61.5L1.5 75.5L78 242.5" stroke="black"/>
<path d="M46.9376 77.3431L54.6447 98.7478L50.249 100.331L42.542 78.9258L46.9376 77.3431ZM53.5237 74.9717L54.7676 78.4264L37.3028 84.7149L36.0588 81.2601L53.5237 74.9717ZM69.5251 93.7221C68.2902 94.1667 67.1122 94.3695 65.9909 94.3303C64.8662 94.2814 63.8337 94.0276 62.8936 93.569C61.9633 93.1068 61.1492 92.4755 60.4513 91.675C59.7499 90.8647 59.2087 89.9303 58.8275 88.8718L58.6158 88.2838C58.1818 87.0783 57.9563 85.914 57.9394 84.7908C57.9224 83.6676 58.1002 82.6238 58.4726 81.6594C58.8547 80.6914 59.4359 79.8455 60.216 79.1218C60.9926 78.3883 61.9591 77.8133 63.1156 77.3969C64.2427 76.9911 65.3094 76.8173 66.3158 76.8757C67.3221 76.934 68.2428 77.2004 69.0779 77.6747C69.9228 78.1455 70.67 78.8064 71.3197 79.6575C71.9658 80.4988 72.4988 81.5026 72.9188 82.6688L73.554 84.433L60.911 88.9852L59.8947 86.1626L68.3772 83.1084L68.2608 82.7849C68.0491 82.1969 67.7525 81.7114 67.371 81.3284C66.9958 80.9321 66.5481 80.6725 66.0278 80.5499C65.5076 80.4272 64.9191 80.4841 64.2625 80.7205C63.7038 80.9216 63.2677 81.2171 62.9541 81.6068C62.6405 81.9965 62.4357 82.4577 62.3397 82.9905C62.2535 83.5198 62.2543 84.1062 62.3421 84.75C62.4362 85.3803 62.6103 86.0484 62.8644 86.754L63.0762 87.3421C63.3055 87.9791 63.6055 88.5354 63.976 89.0109C64.3563 89.4829 64.7836 89.8549 65.258 90.127C65.7422 90.3955 66.2632 90.5511 66.8211 90.5938C67.3887 90.633 67.9813 90.5414 68.5987 90.3191C69.3632 90.0438 70.0208 89.641 70.5716 89.1105C71.1286 88.5667 71.5379 87.9046 71.7993 87.124L74.6621 88.6175C74.5018 89.2177 74.2119 89.8425 73.7924 90.4917C73.3828 91.1374 72.8273 91.747 72.126 92.3206C71.4211 92.8844 70.5542 93.3516 69.5251 93.7221ZM83.8438 84.8299C84.3632 84.6429 84.7885 84.3791 85.1198 84.0384C85.4475 83.6879 85.6588 83.2907 85.7536 82.8469C85.8548 82.3898 85.8202 81.9096 85.6501 81.4062L89.6341 79.9717C90.0266 81.0925 90.0858 82.1949 89.8118 83.2789C89.5343 84.3531 88.9906 85.3183 88.1807 86.1746C87.3673 87.021 86.348 87.6648 85.123 88.1059C83.8881 88.5506 82.7359 88.7329 81.6664 88.653C80.6067 88.5696 79.6425 88.2746 78.7737 87.7681C77.9014 87.2519 77.1387 86.5633 76.4855 85.7024C75.8288 84.8317 75.2993 83.8378 74.897 82.7205L74.7435 82.2942C74.3377 81.1671 74.112 80.0637 74.0664 78.984C74.0174 77.8946 74.1661 76.8778 74.5126 75.9338C74.8556 74.9799 75.4087 74.1331 76.172 73.3933C76.9352 72.6535 77.9294 72.063 79.1545 71.6219C80.458 71.1526 81.6897 70.9914 82.8498 71.1383C84.0196 71.2817 85.0515 71.7184 85.9454 72.4483C86.8455 73.1649 87.5281 74.1536 87.9931 75.4144L84.0092 76.8489C83.8088 76.3231 83.5232 75.8835 83.1523 75.5299C82.7912 75.1728 82.3639 74.9391 81.8703 74.829C81.383 74.7055 80.8502 74.7479 80.272 74.9561C79.6545 75.1784 79.1974 75.4925 78.9007 75.8982C78.6004 76.2942 78.4236 76.7564 78.3703 77.2849C78.3135 77.8036 78.3433 78.363 78.4598 78.9632C78.5825 79.5501 78.7551 80.1522 78.9774 80.7697L79.1309 81.196C79.3532 81.8135 79.6059 82.3923 79.889 82.9325C80.1721 83.4727 80.5008 83.9245 80.8752 84.2879C81.2594 84.6478 81.6934 84.8846 82.1772 84.9982C82.661 85.1119 83.2165 85.0558 83.8438 84.8299ZM90.0588 60.4883L98.1893 83.0691L93.9553 84.5936L85.8249 62.0127L90.0588 60.4883ZM94.5217 74.7742L93.3603 75.1924C92.9713 74.0814 92.7514 73.0092 92.7003 71.9758C92.6458 70.9326 92.7596 69.9727 93.0418 69.096C93.3205 68.2096 93.7586 67.443 94.356 66.7961C94.9632 66.1457 95.7177 65.6581 96.6194 65.3335C97.4034 65.0512 98.1546 64.908 98.8728 64.9041C99.5972 64.8868 100.278 65.0402 100.915 65.3644C101.558 65.6753 102.149 66.1768 102.686 66.8691C103.223 67.5615 103.693 68.4662 104.095 69.5835L107.716 79.6391L103.452 81.1741L99.821 71.0892C99.567 70.3835 99.2647 69.8668 98.9142 69.5391C98.57 69.1981 98.1767 69.013 97.7345 68.9841C97.2986 68.9417 96.8062 69.0194 96.2573 69.217C95.6497 69.4358 95.1708 69.7355 94.8208 70.1162C94.4805 70.4934 94.2553 70.9287 94.1452 71.4223C94.0315 71.9061 94.0111 72.4338 94.0841 73.0054C94.157 73.577 94.3029 74.1666 94.5217 74.7742ZM124.286 65.0538L118.831 67.0176L117.593 63.5776L123.047 61.6138C123.89 61.3103 124.526 60.9261 124.957 60.4611C125.384 59.9863 125.63 59.4549 125.695 58.8668C125.76 58.2788 125.679 57.6711 125.454 57.0439C125.224 56.4068 124.888 55.858 124.446 55.3974C124.003 54.9368 123.457 54.6351 122.808 54.4924C122.159 54.3498 121.413 54.4302 120.57 54.7337L116.644 56.147L123.108 74.097L118.697 75.685L110.99 54.2802L119.326 51.2789C121.002 50.6755 122.547 50.4623 123.961 50.6395C125.382 50.8032 126.602 51.2997 127.62 52.1288C128.638 52.9579 129.392 54.0536 129.883 55.4159C130.38 56.7978 130.492 58.1082 130.219 59.347C129.945 60.5859 129.304 61.6967 128.297 62.6796C127.298 63.659 125.961 64.4504 124.286 65.0538ZM144.956 62.1783L142.404 55.0924C142.221 54.5827 141.98 54.1766 141.683 53.874C141.382 53.5615 141.019 53.3659 140.592 53.2871C140.175 53.2048 139.692 53.2625 139.143 53.4601C138.672 53.6295 138.296 53.8593 138.013 54.1494C137.726 54.4297 137.544 54.7553 137.467 55.1262C137.387 55.4872 137.419 55.8687 137.564 56.2705L133.33 57.795C133.087 57.1187 133.012 56.4203 133.107 55.6998C133.202 54.9792 133.465 54.281 133.897 53.6051C134.326 52.9194 134.904 52.296 135.632 51.735C136.37 51.1704 137.253 50.7028 138.282 50.3323C139.517 49.8877 140.689 49.6982 141.798 49.764C142.906 49.8298 143.883 50.1756 144.729 50.8012C145.584 51.4233 146.233 52.3518 146.678 53.5867L149.129 60.3933C149.443 61.2656 149.754 61.9616 150.063 62.4815C150.369 62.9915 150.699 63.4153 151.053 63.7528L151.143 64.0027L146.865 65.543C146.503 65.1859 146.153 64.7033 145.812 64.0953C145.477 63.474 145.192 62.8349 144.956 62.1783ZM143.317 55.8762L144.21 58.2619L141.843 59.1141C141.284 59.3153 140.822 59.5536 140.456 59.8293C140.09 60.1049 139.818 60.4079 139.638 60.7384C139.454 61.0591 139.353 61.3943 139.335 61.744C139.327 62.0902 139.388 62.4446 139.519 62.8072C139.65 63.1698 139.851 63.4682 140.124 63.7022C140.393 63.9264 140.714 64.0654 141.087 64.1191C141.457 64.163 141.853 64.109 142.275 63.9573C142.912 63.7279 143.42 63.4011 143.798 62.9769C144.177 62.5527 144.427 62.1085 144.547 61.6444C144.678 61.1767 144.688 60.7744 144.578 60.4377L146.341 61.8289C146.329 62.2872 146.263 62.7814 146.144 63.3114C146.035 63.8379 145.843 64.3664 145.569 64.8968C145.291 65.4175 144.908 65.9044 144.418 66.3576C143.924 66.8011 143.28 67.1657 142.487 67.4515C141.477 67.815 140.488 67.944 139.52 67.8386C138.559 67.7199 137.709 67.3892 136.971 66.8467C136.24 66.2908 135.708 65.5523 135.376 64.631C135.076 63.7979 134.967 63.0015 135.047 62.2418C135.128 61.482 135.393 60.7722 135.842 60.1124C136.297 59.4392 136.944 58.8241 137.785 58.2669C138.621 57.7 139.647 57.1978 140.862 56.7602L143.317 55.8762ZM152.516 45.5395L158.243 61.446L153.995 62.9758L148.267 47.0692L152.516 45.5395ZM146.51 43.0188C146.288 42.4014 146.32 41.8141 146.606 41.257C146.893 40.6999 147.399 40.2908 148.124 40.0296C148.839 39.772 149.485 39.7665 150.061 40.0131C150.647 40.2561 151.051 40.6863 151.273 41.3038C151.495 41.9212 151.458 42.5103 151.162 43.0709C150.875 43.628 150.374 44.0353 149.659 44.2929C148.934 44.5541 148.283 44.5614 147.707 44.3148C147.131 44.0683 146.732 43.6363 146.51 43.0188ZM158.081 35.9962L166.211 58.5771L161.963 60.1068L153.832 37.526L158.081 35.9962ZM54.1689 124.351L54.4706 125.189L51.7803 126.157L51.4786 125.319L54.1689 124.351ZM58.0679 127.275L57.048 127.642L54.6739 121.049C54.5191 120.619 54.4659 120.229 54.5144 119.879C54.5653 119.525 54.7106 119.219 54.9504 118.963C55.1888 118.702 55.5102 118.5 55.9144 118.354C56.0321 118.312 56.1523 118.277 56.2752 118.249C56.4018 118.22 56.5273 118.2 56.6519 118.188L56.8965 119.04C56.8127 119.05 56.7198 119.069 56.6179 119.097C56.5197 119.124 56.4229 119.155 56.3273 119.189C56.1105 119.267 55.9389 119.379 55.8126 119.524C55.6887 119.664 55.6161 119.831 55.5948 120.026C55.5735 120.22 55.6065 120.439 55.6938 120.682L58.0679 127.275ZM57.1881 120.853L57.47 121.636L54.2394 122.8L53.9575 122.017L57.1881 120.853ZM63.6248 123.717L61.9733 119.131L62.9987 118.761L65.1464 124.726L64.1707 125.078L63.6248 123.717ZM63.3652 122.391L63.7857 122.227C63.9286 122.624 64.0187 123.007 64.0559 123.375C64.0955 123.739 64.0677 124.077 63.9726 124.389C63.8775 124.702 63.7062 124.981 63.4588 125.228C63.2101 125.471 62.8726 125.67 62.4462 125.823C62.1559 125.928 61.8742 125.981 61.6012 125.984C61.3319 125.986 61.0791 125.929 60.8428 125.815C60.6066 125.701 60.3897 125.519 60.1923 125.271C59.9985 125.021 59.8301 124.697 59.6872 124.301L58.3017 120.453L59.3216 120.085L60.7111 123.944C60.8077 124.213 60.9171 124.424 61.0395 124.58C61.1641 124.73 61.2965 124.838 61.4364 124.904C61.5787 124.965 61.7215 124.992 61.8647 124.986C62.0115 124.979 62.1548 124.95 62.2945 124.9C62.7281 124.744 63.042 124.537 63.236 124.281C63.4288 124.02 63.5293 123.729 63.5377 123.406C63.5484 123.078 63.4909 122.74 63.3652 122.391ZM66.0317 119.108L67.721 123.799L66.7011 124.167L64.5533 118.202L65.5181 117.854L66.0317 119.108ZM66.3231 120.678L65.8927 120.814C65.7495 120.405 65.6745 120.007 65.6677 119.619C65.6596 119.227 65.7158 118.865 65.8363 118.53C65.9569 118.196 66.139 117.907 66.3827 117.661C66.6288 117.411 66.932 117.221 67.2921 117.091C67.5862 116.985 67.8653 116.93 68.1297 116.926C68.3927 116.919 68.638 116.972 68.8655 117.085C69.0968 117.197 69.3062 117.375 69.4936 117.618C69.6797 117.859 69.8436 118.175 69.9852 118.569L71.3926 122.477L70.3672 122.846L68.9558 118.927C68.8434 118.614 68.7074 118.381 68.5481 118.227C68.3874 118.069 68.2036 117.979 67.9967 117.958C67.7886 117.933 67.5558 117.967 67.2986 118.06C67.045 118.151 66.8326 118.288 66.6615 118.47C66.4941 118.651 66.3688 118.862 66.2856 119.104C66.206 119.344 66.1677 119.601 66.1705 119.874C66.1757 120.142 66.2265 120.41 66.3231 120.678ZM58.9117 137.523L59.2134 138.361L56.5231 139.329L56.2214 138.491L58.9117 137.523ZM60.5741 135.81L63.1347 142.921L62.1093 143.29L59.1358 135.032L60.073 134.695L60.5741 135.81ZM65.2361 136.149L65.2778 136.264C65.434 136.698 65.5274 137.119 65.5582 137.527C65.5876 137.932 65.5521 138.306 65.4515 138.649C65.3546 138.991 65.19 139.289 64.9576 139.543C64.7252 139.797 64.4234 139.991 64.0522 140.125C63.6736 140.261 63.3167 140.319 62.9813 140.299C62.646 140.278 62.3342 140.185 62.0461 140.019C61.7579 139.853 61.493 139.624 61.2513 139.333C61.0133 139.041 60.7968 138.694 60.6018 138.291L60.3795 137.673C60.2648 137.216 60.2052 136.791 60.2008 136.399C60.1964 136.006 60.2491 135.65 60.3589 135.333C60.471 135.01 60.6473 134.733 60.8876 134.501C61.1266 134.265 61.4336 134.08 61.8085 133.945C62.1834 133.81 62.5424 133.764 62.8857 133.806C63.2277 133.845 63.5462 133.963 63.8412 134.16C64.1363 134.357 64.401 134.625 64.6352 134.964C64.8717 135.298 65.0721 135.693 65.2361 136.149ZM64.2524 136.634L64.2107 136.518C64.1036 136.22 63.9717 135.952 63.8153 135.714C63.6576 135.472 63.4768 135.275 63.273 135.124C63.0716 134.968 62.8493 134.87 62.6061 134.829C62.3617 134.784 62.0998 134.812 61.8204 134.912C61.5632 135.005 61.3549 135.13 61.1955 135.287C61.0398 135.443 60.923 135.62 60.8449 135.818C60.7655 136.013 60.718 136.221 60.7023 136.442C60.6889 136.659 60.6984 136.875 60.7307 137.092L61.2449 138.52C61.411 138.751 61.6012 138.956 61.8156 139.136C62.0286 139.313 62.2705 139.431 62.5413 139.492C62.8108 139.548 63.1128 139.516 63.4472 139.396C63.7229 139.297 63.9394 139.154 64.0969 138.969C64.2567 138.779 64.3645 138.559 64.4203 138.311C64.4799 138.061 64.4939 137.794 64.4624 137.511C64.4296 137.224 64.3596 136.931 64.2524 136.634ZM65.5999 129.877L68.6488 138.345L67.6289 138.712L64.58 130.244L65.5999 129.877ZM67.251 135.224L66.8205 135.36C66.6773 134.951 66.6023 134.552 66.5955 134.165C66.5874 133.773 66.6437 133.41 66.7642 133.076C66.8847 132.742 67.0669 132.452 67.3106 132.207C67.5567 131.956 67.8598 131.766 68.22 131.637C68.514 131.531 68.7932 131.476 69.0575 131.472C69.3205 131.465 69.5658 131.517 69.7934 131.631C70.0247 131.742 70.234 131.92 70.4215 132.164C70.6076 132.404 70.7715 132.721 70.9131 133.114L72.3204 137.023L71.295 137.392L69.8837 133.473C69.7712 133.16 69.6353 132.927 69.4759 132.772C69.3152 132.614 69.1314 132.525 68.9246 132.504C68.7164 132.479 68.4837 132.513 68.2264 132.606C67.9728 132.697 67.7605 132.834 67.5894 133.016C67.4219 133.196 67.2966 133.408 67.2134 133.649C67.1339 133.89 67.0955 134.146 67.0984 134.419C67.1035 134.687 67.1544 134.956 67.251 135.224ZM72.5273 133.654L72.4816 133.527C72.3268 133.097 72.2457 132.676 72.2383 132.264C72.2296 131.847 72.2939 131.461 72.4312 131.104C72.5672 130.744 72.7753 130.428 73.0555 130.157C73.3344 129.882 73.6814 129.67 74.0967 129.521C74.5157 129.37 74.9202 129.311 75.3103 129.345C75.7026 129.374 76.0661 129.484 76.4005 129.675C76.7373 129.861 77.0351 130.117 77.2937 130.443C77.551 130.766 77.757 131.142 77.9119 131.572L77.9575 131.699C78.1123 132.129 78.1934 132.55 78.2008 132.963C78.2082 133.375 78.1421 133.762 78.0024 134.124C77.8651 134.481 77.657 134.796 77.3782 135.071C77.1017 135.341 76.7539 135.551 76.3349 135.702C75.9159 135.853 75.5121 135.913 75.1234 135.883C74.7334 135.849 74.3699 135.739 74.0331 135.553C73.6987 135.362 73.4028 135.106 73.1455 134.783C72.8882 134.46 72.6821 134.084 72.5273 133.654ZM73.5015 133.16L73.5472 133.287C73.6544 133.585 73.7905 133.853 73.9556 134.093C74.1194 134.328 74.3075 134.522 74.52 134.674C74.7361 134.825 74.9719 134.92 75.2274 134.961C75.4816 134.998 75.7502 134.966 76.0332 134.864C76.3125 134.764 76.5364 134.619 76.7049 134.429C76.8757 134.235 76.9946 134.012 77.0614 133.759C77.1283 133.507 77.1497 133.237 77.1256 132.951C77.1038 132.66 77.0393 132.366 76.9321 132.068L76.8865 131.941C76.7806 131.647 76.6439 131.383 76.4765 131.149C76.3114 130.909 76.1207 130.714 75.9046 130.564C75.6909 130.408 75.4562 130.31 75.2007 130.269C74.9489 130.227 74.6815 130.257 74.3985 130.359C74.1191 130.459 73.8941 130.607 73.7233 130.801C73.5561 130.994 73.4379 131.219 73.3687 131.477C73.3018 131.729 73.2811 132 73.3065 132.29C73.3307 132.576 73.3957 132.866 73.5015 133.16ZM79.6172 129.096L81.3065 133.788L80.2866 134.155L78.1388 128.19L79.1036 127.842L79.6172 129.096ZM79.9086 130.666L79.4782 130.803C79.335 130.393 79.26 129.995 79.2532 129.607C79.2451 129.216 79.3013 128.853 79.4218 128.519C79.5424 128.185 79.7245 127.895 79.9682 127.649C80.2143 127.399 80.5174 127.209 80.8776 127.079C81.1716 126.973 81.4508 126.918 81.7151 126.915C81.9782 126.907 82.2234 126.96 82.451 127.073C82.6823 127.185 82.8916 127.363 83.0791 127.607C83.2652 127.847 83.4291 128.164 83.5707 128.557L84.978 132.466L83.9526 132.835L82.5413 128.915C82.4288 128.603 82.2929 128.369 82.1335 128.215C81.9728 128.057 81.7891 127.967 81.5822 127.946C81.3741 127.922 81.1413 127.956 80.8841 128.048C80.6305 128.14 80.4181 128.276 80.247 128.458C80.0796 128.639 79.9542 128.85 79.871 129.092C79.7915 129.332 79.7532 129.589 79.756 129.862C79.7611 130.13 79.812 130.398 79.9086 130.666ZM89.0422 131.127C88.6269 131.276 88.225 131.342 87.8366 131.324C87.4505 131.301 87.0899 131.205 86.7547 131.035C86.4232 130.864 86.1296 130.625 85.8739 130.318C85.6182 130.012 85.415 129.649 85.2641 129.23L85.1807 128.999C85.0061 128.513 84.9222 128.056 84.9293 127.626C84.935 127.192 85.0133 126.798 85.1643 126.445C85.3152 126.092 85.5224 125.791 85.7859 125.542C86.0493 125.294 86.3483 125.109 86.6827 124.989C87.109 124.835 87.503 124.777 87.8647 124.812C88.23 124.847 88.5596 124.961 88.8533 125.154C89.1457 125.343 89.4039 125.599 89.6278 125.921C89.8504 126.24 90.0371 126.608 90.188 127.027L90.3527 127.485L85.8983 129.089L85.5986 128.256L89.0331 127.02L89.0053 126.943C88.8954 126.683 88.7476 126.446 88.562 126.23C88.3802 126.014 88.1591 125.861 87.8987 125.772C87.6383 125.683 87.3336 125.701 86.9844 125.827C86.7529 125.91 86.5576 126.037 86.3985 126.206C86.2381 126.372 86.1225 126.575 86.0517 126.817C85.9808 127.058 85.9564 127.33 85.9785 127.634C86.0006 127.937 86.0765 128.269 86.2061 128.629L86.2895 128.861C86.3914 129.144 86.5259 129.396 86.6931 129.619C86.8626 129.836 87.0565 130.011 87.2746 130.144C87.4965 130.276 87.735 130.356 87.9902 130.385C88.2491 130.412 88.5182 130.375 88.7976 130.274C89.1577 130.145 89.4363 129.961 89.6333 129.724C89.8303 129.487 89.9782 129.212 90.0769 128.898L90.8711 129.167C90.8126 129.408 90.7158 129.652 90.5809 129.9C90.4459 130.148 90.2532 130.379 90.0025 130.594C89.7555 130.808 89.4354 130.985 89.0422 131.127ZM96.8363 128.196L95.8164 128.563L93.4424 121.97C93.2875 121.54 93.2344 121.15 93.2829 120.8C93.3337 120.446 93.479 120.14 93.7188 119.883C93.9572 119.623 94.2786 119.42 94.6829 119.275C94.8005 119.232 94.9207 119.197 95.0436 119.17C95.1702 119.141 95.2958 119.121 95.4203 119.109L95.6649 119.961C95.5811 119.971 95.4883 119.99 95.3864 120.018C95.2882 120.045 95.1913 120.076 95.0957 120.11C94.8789 120.188 94.7073 120.3 94.5811 120.445C94.4571 120.585 94.3845 120.752 94.3632 120.947C94.3419 121.141 94.3749 121.36 94.4623 121.602L96.8363 128.196ZM95.9565 121.774L96.2384 122.557L93.0078 123.72L92.726 122.938L95.9565 121.774ZM98.4495 121.935L100.26 126.963L99.2399 127.33L97.0922 121.365L98.0845 121.008L98.4495 121.935ZM99.9635 120.294L100.299 121.244C100.208 121.256 100.123 121.275 100.045 121.299C99.9688 121.318 99.8829 121.345 99.7874 121.379C99.5522 121.464 99.3577 121.575 99.2041 121.714C99.0505 121.852 98.935 122.01 98.8577 122.187C98.7804 122.364 98.7381 122.558 98.7307 122.768C98.7257 122.974 98.7513 123.189 98.8073 123.413L98.5802 123.682C98.4505 123.322 98.3636 122.971 98.3197 122.63C98.2794 122.287 98.2909 121.968 98.3542 121.671C98.4163 121.37 98.5386 121.11 98.7211 120.891C98.9061 120.667 99.1602 120.496 99.4837 120.38C99.5572 120.353 99.645 120.332 99.7472 120.316C99.848 120.296 99.9201 120.289 99.9635 120.294ZM102.026 119.589L104.174 125.554L103.149 125.923L101.001 119.958L102.026 119.589ZM100.354 118.404C100.294 118.238 100.294 118.081 100.352 117.931C100.414 117.78 100.544 117.669 100.742 117.597C100.937 117.527 101.107 117.531 101.251 117.608C101.398 117.683 101.502 117.804 101.561 117.969C101.618 118.127 101.614 118.282 101.548 118.434C101.485 118.582 101.356 118.691 101.161 118.761C100.963 118.832 100.792 118.831 100.65 118.758C100.509 118.68 100.411 118.562 100.354 118.404ZM108.326 124.183C107.911 124.333 107.509 124.399 107.121 124.381C106.735 124.358 106.374 124.261 106.039 124.091C105.707 123.92 105.414 123.681 105.158 123.375C104.902 123.068 104.699 122.706 104.548 122.287L104.465 122.055C104.29 121.57 104.206 121.112 104.213 120.682C104.219 120.248 104.297 119.855 104.448 119.501C104.599 119.148 104.807 118.847 105.07 118.599C105.333 118.35 105.632 118.166 105.967 118.045C106.393 117.892 106.787 117.833 107.149 117.869C107.514 117.904 107.844 118.017 108.137 118.211C108.43 118.4 108.688 118.656 108.912 118.978C109.135 119.296 109.321 119.665 109.472 120.084L109.637 120.542L105.182 122.145L104.883 121.313L108.317 120.076L108.289 119.999C108.179 119.74 108.032 119.502 107.846 119.287C107.664 119.07 107.443 118.917 107.183 118.828C106.922 118.739 106.618 118.758 106.269 118.883C106.037 118.967 105.842 119.093 105.683 119.263C105.522 119.428 105.407 119.632 105.336 119.873C105.265 120.115 105.241 120.387 105.263 120.69C105.285 120.994 105.361 121.326 105.49 121.686L105.574 121.917C105.676 122.2 105.81 122.453 105.977 122.675C106.147 122.892 106.341 123.067 106.559 123.201C106.781 123.332 107.019 123.413 107.274 123.441C107.533 123.468 107.802 123.432 108.082 123.331C108.442 123.201 108.72 123.018 108.917 122.781C109.114 122.544 109.262 122.269 109.361 121.955L110.155 122.223C110.097 122.464 110 122.709 109.865 122.957C109.73 123.205 109.537 123.436 109.287 123.651C109.04 123.864 108.72 124.042 108.326 124.183ZM111.129 117.75L112.818 122.441L111.798 122.809L109.651 116.844L110.615 116.496L111.129 117.75ZM111.42 119.32L110.99 119.457C110.847 119.047 110.772 118.649 110.765 118.261C110.757 117.869 110.813 117.507 110.934 117.173C111.054 116.839 111.236 116.549 111.48 116.303C111.726 116.053 112.029 115.863 112.389 115.733C112.683 115.627 112.963 115.572 113.227 115.568C113.49 115.561 113.735 115.614 113.963 115.727C114.194 115.839 114.403 116.017 114.591 116.261C114.777 116.501 114.941 116.817 115.082 117.211L116.49 121.119L115.464 121.489L114.053 117.569C113.941 117.257 113.805 117.023 113.645 116.869C113.485 116.711 113.301 116.621 113.094 116.6C112.886 116.576 112.653 116.61 112.396 116.702C112.142 116.793 111.93 116.93 111.759 117.112C111.591 117.293 111.466 117.504 111.383 117.746C111.303 117.986 111.265 118.243 111.268 118.516C111.273 118.784 111.324 119.052 111.42 119.32ZM121.382 118.05L118.75 110.74L119.775 110.371L122.824 118.839L121.887 119.176L121.382 118.05ZM116.735 117.737L116.694 117.621C116.53 117.165 116.436 116.732 116.412 116.321C116.391 115.905 116.435 115.526 116.545 115.183C116.658 114.84 116.831 114.545 117.067 114.298C117.304 114.046 117.601 113.856 117.957 113.728C118.332 113.593 118.683 113.542 119.01 113.573C119.339 113.6 119.647 113.703 119.931 113.883C120.218 114.058 120.482 114.299 120.721 114.607C120.961 114.916 121.182 115.282 121.385 115.707L121.568 116.215C121.685 116.666 121.748 117.088 121.756 117.48C121.767 117.87 121.718 118.224 121.609 118.541C121.502 118.858 121.332 119.133 121.096 119.367C120.86 119.598 120.552 119.781 120.174 119.918C119.824 120.043 119.478 120.083 119.133 120.037C118.792 119.989 118.468 119.867 118.16 119.671C117.857 119.473 117.582 119.211 117.335 118.884C117.091 118.553 116.891 118.17 116.735 117.737ZM117.719 117.252L117.761 117.367C117.868 117.665 117.998 117.934 118.151 118.174C118.307 118.412 118.485 118.607 118.685 118.759C118.885 118.912 119.105 119.009 119.345 119.051C119.583 119.09 119.84 119.06 120.115 118.961C120.454 118.839 120.705 118.667 120.871 118.446C121.039 118.223 121.148 117.97 121.195 117.688C121.243 117.405 121.254 117.112 121.228 116.81L120.75 115.482C120.633 115.295 120.498 115.124 120.346 114.967C120.197 114.805 120.029 114.674 119.844 114.575C119.661 114.47 119.458 114.408 119.235 114.389C119.016 114.368 118.778 114.404 118.521 114.497C118.241 114.597 118.022 114.743 117.862 114.933C117.705 115.119 117.598 115.336 117.542 115.584C117.485 115.829 117.473 116.095 117.505 116.382C117.541 116.664 117.612 116.954 117.719 117.252ZM122.471 109.4L125.52 117.868L124.495 118.237L121.446 109.769L122.471 109.4ZM128.611 116.058L128.345 110.113L129.436 109.72L129.523 117.467C129.521 117.633 129.504 117.818 129.473 118.02C129.447 118.225 129.392 118.429 129.308 118.634C129.224 118.839 129.1 119.024 128.936 119.191C128.777 119.361 128.561 119.494 128.289 119.592C128.208 119.621 128.102 119.647 127.969 119.67C127.836 119.693 127.741 119.707 127.684 119.711L127.381 118.886C127.412 118.879 127.459 118.866 127.523 118.847C127.592 118.831 127.639 118.818 127.665 118.808C127.896 118.725 128.081 118.623 128.221 118.502C128.361 118.385 128.461 118.235 128.519 118.052C128.583 117.871 128.611 117.643 128.603 117.368L128.611 116.058ZM125.467 111.149L128.684 115.222L129.335 116.202L128.737 116.84L124.353 111.55L125.467 111.149ZM63.6545 150.695L63.9562 151.533L61.2659 152.502L60.9642 151.664L63.6545 150.695ZM67.7487 146.811L68.6748 146.477L70.7769 152.315C70.9662 152.841 71.021 153.328 70.9415 153.776C70.862 154.224 70.6656 154.612 70.3521 154.941C70.0437 155.272 69.6414 155.527 69.1453 155.705C68.9395 155.779 68.685 155.834 68.3818 155.868C68.0837 155.905 67.7727 155.894 67.4488 155.837C67.1299 155.781 66.8341 155.657 66.5614 155.465L66.8778 154.666C67.2363 154.877 67.5726 154.993 67.8869 155.013C68.2049 155.031 68.4981 154.992 68.7664 154.895C69.0898 154.779 69.3473 154.618 69.5388 154.412C69.7304 154.206 69.8475 153.96 69.8901 153.675C69.9377 153.392 69.8993 153.078 69.7749 152.732L68.1274 148.157L67.7487 146.811ZM64.7393 151.338L64.6976 151.222C64.5335 150.767 64.4379 150.334 64.4108 149.924C64.3861 149.51 64.4265 149.132 64.532 148.791C64.6413 148.449 64.8152 148.153 65.054 147.906C65.2914 147.654 65.592 147.463 65.9559 147.332C66.3307 147.197 66.6817 147.145 67.0086 147.177C67.3379 147.204 67.645 147.307 67.9298 147.487C68.2169 147.661 68.4803 147.903 68.7199 148.211C68.9596 148.519 69.1808 148.886 69.3837 149.311L69.5664 149.818C69.6834 150.27 69.746 150.692 69.7541 151.083C69.7659 151.473 69.7169 151.827 69.6071 152.145C69.5009 152.461 69.3302 152.737 69.0948 152.971C68.8582 153.201 68.5505 153.385 68.172 153.521C67.8155 153.65 67.4649 153.691 67.1203 153.644C66.7794 153.597 66.4571 153.474 66.1533 153.276C65.8496 153.079 65.5764 152.816 65.3338 152.488C65.0936 152.155 64.8954 151.772 64.7393 151.338ZM65.7175 150.855L65.7591 150.971C65.8663 151.269 65.9963 151.537 66.1491 151.777C66.3055 152.016 66.4819 152.212 66.6783 152.365C66.8784 152.517 67.0982 152.615 67.3377 152.657C67.5759 152.696 67.8328 152.666 68.1084 152.566C68.4466 152.445 68.7001 152.272 68.869 152.05C69.0379 151.827 69.1443 151.575 69.1883 151.293C69.2359 151.01 69.2468 150.718 69.2211 150.416L68.7427 149.087C68.6295 148.9 68.4969 148.727 68.3448 148.57C68.1952 148.408 68.0277 148.278 67.8425 148.178C67.6596 148.074 67.4567 148.012 67.2338 147.993C67.0109 147.973 66.7709 148.01 66.5136 148.102C66.2343 148.203 66.0147 148.348 65.8549 148.539C65.6975 148.724 65.5908 148.941 65.535 149.19C65.4815 149.433 65.4711 149.698 65.5039 149.985C65.5391 150.268 65.6103 150.558 65.7175 150.855ZM70.4309 143.018L73.4798 151.485L72.4544 151.855L69.4055 143.387L70.4309 143.018ZM78.2704 148.204L76.6189 143.617L77.6443 143.248L79.7921 149.213L78.8163 149.564L78.2704 148.204ZM78.0108 146.877L78.4313 146.713C78.5743 147.11 78.6643 147.493 78.7015 147.862C78.7411 148.225 78.7133 148.563 78.6182 148.876C78.5231 149.188 78.3519 149.468 78.1045 149.714C77.8557 149.958 77.5182 150.156 77.0919 150.309C76.8015 150.414 76.5199 150.468 76.2469 150.47C75.9775 150.472 75.7247 150.416 75.4885 150.301C75.2522 150.187 75.0354 150.006 74.8379 149.757C74.6441 149.507 74.4758 149.184 74.3329 148.787L72.9473 144.939L73.9672 144.572L75.3567 148.431C75.4533 148.699 75.5628 148.911 75.6851 149.066C75.8098 149.216 75.9421 149.324 76.0821 149.39C76.2244 149.451 76.3671 149.479 76.5103 149.473C76.6572 149.465 76.8004 149.437 76.9401 149.386C77.3738 149.23 77.6877 149.024 77.8817 148.767C78.0744 148.507 78.175 148.215 78.1833 147.892C78.194 147.565 78.1365 147.226 78.0108 146.877ZM81.6963 141.789L81.9782 142.572L78.7531 143.733L78.4713 142.95L81.6963 141.789ZM79.0408 141.107L80.0607 140.74L82.1985 146.677C82.2713 146.879 82.3574 147.021 82.457 147.101C82.5565 147.181 82.6618 147.22 82.773 147.218C82.8841 147.215 82.9967 147.193 83.1106 147.152C83.1951 147.122 83.2807 147.083 83.3673 147.035C83.4562 146.982 83.5226 146.942 83.5664 146.913L83.8716 147.744C83.8 147.799 83.7021 147.861 83.5777 147.931C83.4583 148.003 83.3068 148.072 83.123 148.138C82.8731 148.228 82.6255 148.261 82.3803 148.237C82.1351 148.213 81.9083 148.108 81.7 147.922C81.494 147.73 81.3195 147.436 81.1766 147.039L79.0408 141.107ZM87.5554 146.542C87.1401 146.691 86.7382 146.757 86.3498 146.739C85.9637 146.716 85.6031 146.62 85.2679 146.45C84.9364 146.279 84.6428 146.04 84.3871 145.733C84.1314 145.427 83.9282 145.064 83.7773 144.645L83.6939 144.414C83.5193 143.929 83.4354 143.471 83.4425 143.041C83.4482 142.607 83.5265 142.213 83.6775 141.86C83.8284 141.507 84.0356 141.206 84.2991 140.957C84.5625 140.709 84.8615 140.525 85.1959 140.404C85.6222 140.251 86.0162 140.192 86.3779 140.228C86.7432 140.262 87.0728 140.376 87.3665 140.569C87.6589 140.759 87.9171 141.014 88.141 141.337C88.3636 141.655 88.5503 142.024 88.7012 142.443L88.8659 142.9L84.4115 144.504L84.1118 143.672L87.5463 142.435L87.5185 142.358C87.4086 142.098 87.2608 141.861 87.0753 141.646C86.8934 141.429 86.6723 141.276 86.4119 141.187C86.1515 141.098 85.8468 141.116 85.4976 141.242C85.2661 141.325 85.0708 141.452 84.9117 141.621C84.7513 141.787 84.6357 141.99 84.5649 142.232C84.494 142.473 84.4696 142.746 84.4917 143.049C84.5138 143.353 84.5897 143.684 84.7193 144.044L84.8027 144.276C84.9046 144.559 85.0391 144.812 85.2063 145.034C85.3758 145.251 85.5697 145.426 85.7878 145.559C86.0097 145.691 86.2482 145.771 86.5034 145.8C86.7623 145.827 87.0314 145.79 87.3108 145.69C87.6709 145.56 87.9495 145.377 88.1465 145.14C88.3435 144.903 88.4914 144.627 88.5902 144.314L89.3843 144.582C89.3258 144.823 89.229 145.067 89.0941 145.315C88.9592 145.563 88.7664 145.795 88.5157 146.009C88.2687 146.223 87.9486 146.4 87.5554 146.542ZM90.3581 140.109L92.0473 144.8L91.0274 145.167L88.8796 139.202L89.8444 138.855L90.3581 140.109ZM90.6494 141.679L90.219 141.815C90.0758 141.406 90.0008 141.007 89.994 140.62C89.9859 140.228 90.0421 139.865 90.1626 139.531C90.2832 139.197 90.4653 138.907 90.709 138.662C90.9551 138.411 91.2583 138.221 91.6184 138.092C91.9125 137.986 92.1916 137.931 92.456 137.927C92.719 137.92 92.9643 137.972 93.1919 138.086C93.4231 138.197 93.6325 138.375 93.8199 138.619C94.0061 138.859 94.1699 139.176 94.3115 139.569L95.7189 143.478L94.6935 143.847L93.2821 139.928C93.1697 139.615 93.0337 139.382 92.8744 139.227C92.7137 139.069 92.5299 138.98 92.3231 138.959C92.1149 138.934 91.8822 138.968 91.6249 139.061C91.3713 139.152 91.1589 139.289 90.9878 139.471C90.8204 139.651 90.6951 139.863 90.6119 140.104C90.5324 140.345 90.494 140.601 90.4968 140.874C90.502 141.142 90.5528 141.411 90.6494 141.679ZM101.59 141.364L100.57 141.731L98.1962 135.138C98.0414 134.708 97.9882 134.318 98.0367 133.968C98.0875 133.614 98.2328 133.308 98.4726 133.052C98.7111 132.791 99.0324 132.589 99.4367 132.443C99.5543 132.401 99.6746 132.366 99.7975 132.338C99.924 132.309 100.05 132.289 100.174 132.277L100.419 133.129C100.335 133.139 100.242 133.158 100.14 133.186C100.042 133.213 99.9451 133.244 99.8496 133.278C99.6327 133.356 99.4612 133.468 99.3349 133.613C99.2109 133.753 99.1383 133.921 99.117 134.115C99.0957 134.31 99.1287 134.528 99.2161 134.771L101.59 141.364ZM100.71 134.943L100.992 135.725L97.7616 136.889L97.4798 136.106L100.71 134.943ZM103.203 135.104L105.014 140.131L103.994 140.499L101.846 134.534L102.838 134.176L103.203 135.104ZM104.717 133.462L105.053 134.413C104.962 134.425 104.877 134.443 104.799 134.467C104.723 134.486 104.637 134.513 104.541 134.547C104.306 134.632 104.112 134.743 103.958 134.882C103.804 135.02 103.689 135.178 103.612 135.355C103.534 135.532 103.492 135.726 103.485 135.936C103.48 136.142 103.505 136.357 103.561 136.582L103.334 136.85C103.204 136.49 103.117 136.139 103.073 135.798C103.033 135.455 103.045 135.136 103.108 134.839C103.17 134.538 103.292 134.279 103.475 134.059C103.66 133.835 103.914 133.664 104.237 133.548C104.311 133.522 104.399 133.5 104.501 133.484C104.602 133.465 104.674 133.457 104.717 133.462ZM110.224 138.38C109.809 138.529 109.407 138.595 109.019 138.577C108.633 138.554 108.272 138.458 107.937 138.288C107.605 138.117 107.312 137.878 107.056 137.571C106.8 137.265 106.597 136.902 106.446 136.483L106.363 136.251C106.188 135.766 106.105 135.309 106.112 134.879C106.117 134.445 106.196 134.051 106.347 133.698C106.498 133.345 106.705 133.044 106.968 132.795C107.232 132.547 107.531 132.362 107.865 132.242C108.291 132.088 108.685 132.03 109.047 132.065C109.412 132.1 109.742 132.214 110.036 132.407C110.328 132.596 110.586 132.852 110.81 133.174C111.033 133.493 111.219 133.861 111.37 134.28L111.535 134.738L107.081 136.342L106.781 135.509L110.215 134.273L110.188 134.196C110.078 133.936 109.93 133.699 109.744 133.483C109.562 133.266 109.341 133.114 109.081 133.025C108.821 132.936 108.516 132.954 108.167 133.08C107.935 133.163 107.74 133.29 107.581 133.459C107.42 133.625 107.305 133.828 107.234 134.07C107.163 134.311 107.139 134.583 107.161 134.887C107.183 135.19 107.259 135.522 107.388 135.882L107.472 136.114C107.574 136.397 107.708 136.649 107.875 136.871C108.045 137.089 108.239 137.264 108.457 137.397C108.679 137.529 108.917 137.609 109.173 137.637C109.431 137.665 109.701 137.628 109.98 137.527C110.34 137.398 110.619 137.214 110.816 136.977C111.013 136.74 111.16 136.465 111.259 136.151L112.053 136.42C111.995 136.661 111.898 136.905 111.763 137.153C111.628 137.401 111.435 137.632 111.185 137.847C110.938 138.061 110.618 138.238 110.224 138.38ZM116.211 136.224C115.796 136.374 115.394 136.439 115.006 136.421C114.62 136.399 114.259 136.302 113.924 136.132C113.592 135.961 113.299 135.722 113.043 135.416C112.788 135.109 112.584 134.746 112.433 134.327L112.35 134.096C112.175 133.611 112.092 133.153 112.099 132.723C112.104 132.289 112.183 131.895 112.334 131.542C112.485 131.189 112.692 130.888 112.955 130.64C113.219 130.391 113.518 130.207 113.852 130.086C114.278 129.933 114.672 129.874 115.034 129.91C115.399 129.944 115.729 130.058 116.023 130.251C116.315 130.441 116.573 130.697 116.797 131.019C117.02 131.337 117.206 131.706 117.357 132.125L117.522 132.582L113.068 134.186L112.768 133.354L116.202 132.117L116.175 132.04C116.065 131.781 115.917 131.543 115.731 131.328C115.549 131.111 115.328 130.958 115.068 130.869C114.808 130.78 114.503 130.798 114.154 130.924C113.922 131.008 113.727 131.134 113.568 131.303C113.407 131.469 113.292 131.672 113.221 131.914C113.15 132.155 113.126 132.428 113.148 132.731C113.17 133.035 113.246 133.366 113.375 133.727L113.459 133.958C113.561 134.241 113.695 134.494 113.862 134.716C114.032 134.933 114.226 135.108 114.444 135.241C114.666 135.373 114.904 135.453 115.16 135.482C115.418 135.509 115.688 135.472 115.967 135.372C116.327 135.242 116.606 135.059 116.803 134.822C117 134.585 117.147 134.309 117.246 133.996L118.04 134.264C117.982 134.505 117.885 134.75 117.75 134.997C117.615 135.245 117.422 135.477 117.172 135.691C116.925 135.905 116.605 136.082 116.211 136.224ZM68.3973 163.867L68.699 164.705L66.0087 165.674L65.707 164.836L68.3973 163.867ZM73.9247 165.053L72.819 161.982C72.7343 161.747 72.6131 161.56 72.4554 161.422C72.3 161.279 72.1113 161.193 71.8895 161.165C71.6677 161.137 71.4189 161.172 71.1433 161.272C70.886 161.364 70.6758 161.49 70.5128 161.648C70.3535 161.805 70.2445 161.975 70.1858 162.158C70.1308 162.34 70.1331 162.514 70.1927 162.679L69.1728 163.046C69.096 162.833 69.0751 162.602 69.1099 162.353C69.1447 162.103 69.2346 161.857 69.3796 161.614C69.5269 161.366 69.7278 161.14 69.9824 160.936C70.2394 160.727 70.548 160.558 70.9081 160.428C71.3418 160.272 71.7505 160.208 72.1342 160.236C72.5216 160.263 72.8626 160.391 73.1572 160.621C73.4542 160.846 73.6828 161.181 73.8429 161.626L74.8433 164.405C74.9148 164.603 75.0074 164.809 75.1212 165.021C75.2387 165.232 75.3615 165.406 75.4895 165.542L75.5213 165.63L74.4573 166.013C74.3635 165.914 74.2668 165.773 74.1673 165.588C74.0664 165.401 73.9855 165.222 73.9247 165.053ZM73.1662 162.393L73.4352 163.106L72.4043 163.477C72.114 163.581 71.8635 163.699 71.6528 163.828C71.4408 163.955 71.2742 164.091 71.1529 164.239C71.0316 164.386 70.9557 164.544 70.9251 164.713C70.8932 164.878 70.9104 165.053 70.9765 165.236C71.044 165.424 71.1478 165.58 71.2879 165.704C71.4281 165.827 71.5992 165.905 71.8013 165.936C72.0058 165.962 72.233 165.93 72.483 165.84C72.7954 165.727 73.0472 165.562 73.2384 165.344C73.4297 165.125 73.5607 164.896 73.6316 164.654C73.7061 164.411 73.7165 164.198 73.6626 164.014L74.2748 164.348C74.3047 164.511 74.2964 164.707 74.2499 164.936C74.2035 165.164 74.1158 165.399 73.9869 165.641C73.8603 165.877 73.6871 166.1 73.4672 166.308C73.2496 166.51 72.9791 166.67 72.6557 166.787C72.2514 166.932 71.8683 166.981 71.5063 166.933C71.1481 166.883 70.8367 166.757 70.5724 166.553C70.3104 166.344 70.1199 166.074 70.0008 165.743C69.8856 165.424 69.8469 165.12 69.8845 164.833C69.9208 164.541 70.0274 164.272 70.2044 164.026C70.3801 163.776 70.6181 163.549 70.9184 163.345C71.2188 163.142 71.5729 162.967 71.9809 162.82L73.1662 162.393ZM82.62 161.287C82.5671 161.14 82.4851 161.016 82.3739 160.915C82.2651 160.809 82.093 160.74 81.8574 160.708C81.6243 160.672 81.2972 160.686 80.8761 160.75C80.5202 160.8 80.1909 160.825 79.8882 160.826C79.5892 160.826 79.3215 160.791 79.0851 160.723C78.8523 160.653 78.6533 160.544 78.4879 160.396C78.3225 160.248 78.1954 160.051 78.1068 159.804C78.0221 159.569 77.9935 159.328 78.021 159.082C78.0521 158.834 78.1341 158.595 78.267 158.364C78.4036 158.132 78.5913 157.922 78.8302 157.732C79.0691 157.542 79.3558 157.387 79.6902 157.266C80.168 157.094 80.6064 157.032 81.0054 157.079C81.4044 157.127 81.7449 157.259 82.0269 157.478C82.3075 157.692 82.5094 157.97 82.6324 158.312L81.6126 158.679C81.553 158.514 81.4458 158.372 81.291 158.253C81.1386 158.129 80.9501 158.05 80.7256 158.015C80.5048 157.978 80.2602 158.008 79.9919 158.104C79.7089 158.206 79.4951 158.333 79.3504 158.485C79.2081 158.631 79.1204 158.786 79.0872 158.947C79.0576 159.107 79.0693 159.261 79.1223 159.408C79.162 159.518 79.2161 159.611 79.2846 159.686C79.3554 159.755 79.4537 159.809 79.5794 159.847C79.7038 159.881 79.8673 159.897 80.0699 159.895C80.2724 159.892 80.5246 159.872 80.8265 159.834C81.355 159.768 81.8051 159.756 82.1767 159.796C82.5484 159.837 82.8517 159.941 83.0868 160.11C83.3219 160.279 83.497 160.523 83.6121 160.843C83.7061 161.104 83.737 161.362 83.7048 161.619C83.6763 161.874 83.5876 162.118 83.4387 162.35C83.2921 162.577 83.0932 162.786 82.842 162.976C82.5931 163.161 82.2941 163.316 81.9449 163.442C81.4194 163.631 80.9409 163.698 80.5096 163.641C80.0782 163.585 79.7152 163.441 79.4206 163.211C79.126 162.981 78.9191 162.7 78.8 162.37L79.8254 162C79.9407 162.275 80.1016 162.468 80.3082 162.58C80.5134 162.689 80.7352 162.74 80.9735 162.733C81.2105 162.722 81.4337 162.679 81.6432 162.604C81.9225 162.503 82.1427 162.383 82.3036 162.242C82.4683 162.099 82.5771 161.946 82.63 161.782C82.6829 161.617 82.6796 161.452 82.62 161.287ZM84.5096 155.656L86.6573 161.621L85.6319 161.99L83.4842 156.025L84.5096 155.656ZM82.8373 154.47C82.7778 154.305 82.7771 154.148 82.8353 153.998C82.8972 153.847 83.0274 153.736 83.2258 153.664C83.4206 153.594 83.59 153.597 83.7339 153.674C83.8815 153.75 83.9851 153.87 84.0446 154.036C84.1016 154.194 84.0972 154.349 84.0317 154.501C83.9685 154.649 83.8395 154.757 83.6447 154.827C83.4462 154.899 83.2757 154.898 83.1331 154.825C82.9928 154.747 82.8942 154.628 82.8373 154.47ZM87.5881 155.886L89.3091 160.666L88.2837 161.035L86.1359 155.07L87.1062 154.721L87.5881 155.886ZM87.9443 157.533L87.4642 157.687C87.321 157.278 87.2387 156.882 87.2172 156.499C87.1944 156.113 87.2377 155.755 87.3472 155.425C87.4567 155.095 87.637 154.806 87.8881 154.557C88.1379 154.306 88.4612 154.108 88.8582 153.965C89.1375 153.865 89.4093 153.813 89.6736 153.809C89.9366 153.801 90.185 153.851 90.4186 153.958C90.6522 154.065 90.8644 154.233 91.0552 154.463C91.2461 154.694 91.409 154.996 91.544 155.371L92.9751 159.346L91.9552 159.713L90.5419 155.788C90.4295 155.475 90.2862 155.245 90.1121 155.096C89.9417 154.945 89.7457 154.862 89.5242 154.847C89.3013 154.827 89.0612 154.864 88.804 154.956C88.5026 155.065 88.27 155.209 88.1063 155.388C87.9425 155.568 87.8337 155.773 87.7799 156.004C87.7261 156.235 87.7153 156.482 87.7476 156.744C87.7821 157.002 87.8477 157.264 87.9443 157.533ZM91.6064 155.579L90.9982 156.035C90.8841 155.706 90.8243 155.373 90.8187 155.034C90.8167 154.695 90.8726 154.371 90.9864 154.065C91.1039 153.757 91.2851 153.482 91.5302 153.24C91.7739 152.994 92.0851 152.803 92.4636 152.667C92.7834 152.552 93.0816 152.492 93.3582 152.488C93.6386 152.483 93.8951 152.538 94.1277 152.653C94.3626 152.764 94.5731 152.939 94.7593 153.18C94.9454 153.42 95.1059 153.727 95.2409 154.102L96.6522 158.022L95.6268 158.391L94.2115 154.46C94.0911 154.126 93.9445 153.886 93.7718 153.741C93.6014 153.59 93.4074 153.513 93.1898 153.508C92.9746 153.498 92.7365 153.54 92.4756 153.634C92.2514 153.715 92.0668 153.825 91.9219 153.965C91.7769 154.104 91.6701 154.263 91.6015 154.441C91.5315 154.616 91.4964 154.801 91.4961 154.996C91.4995 155.19 91.5362 155.384 91.6064 155.579ZM97.4809 152.281L100.041 159.392L99.0161 159.761L96.0426 151.503L96.9798 151.166L97.4809 152.281ZM102.143 152.62L102.185 152.735C102.341 153.169 102.434 153.59 102.465 153.998C102.494 154.403 102.459 154.777 102.358 155.12C102.261 155.462 102.097 155.76 101.864 156.014C101.632 156.268 101.33 156.462 100.959 156.596C100.58 156.732 100.223 156.79 99.8881 156.77C99.5528 156.749 99.241 156.656 98.9528 156.49C98.6647 156.324 98.3998 156.095 98.1581 155.804C97.92 155.512 97.7035 155.165 97.5086 154.762L97.2862 154.144C97.1716 153.687 97.112 153.262 97.1076 152.87C97.1031 152.477 97.1558 152.121 97.2656 151.804C97.3778 151.481 97.554 151.204 97.7944 150.972C98.0334 150.736 98.3404 150.551 98.7152 150.416C99.0901 150.281 99.4492 150.235 99.7925 150.277C100.134 150.316 100.453 150.434 100.748 150.631C101.043 150.828 101.308 151.096 101.542 151.435C101.778 151.769 101.979 152.164 102.143 152.62ZM101.159 153.105L101.118 152.989C101.01 152.691 100.879 152.423 100.722 152.185C100.564 151.943 100.384 151.746 100.18 151.595C99.9784 151.439 99.7561 151.341 99.5129 151.3C99.2684 151.255 99.0065 151.283 98.7272 151.383C98.4699 151.476 98.2616 151.601 98.1023 151.758C97.9466 151.914 97.8297 152.091 97.7517 152.289C97.6723 152.484 97.6247 152.692 97.609 152.913C97.5957 153.13 97.6052 153.346 97.6375 153.563L98.1516 154.991C98.3178 155.222 98.508 155.427 98.7224 155.607C98.9354 155.784 99.1773 155.902 99.4481 155.963C99.7176 156.019 100.02 155.987 100.354 155.867C100.63 155.768 100.846 155.625 101.004 155.44C101.163 155.25 101.271 155.03 101.327 154.782C101.387 154.532 101.401 154.265 101.369 153.982C101.336 153.695 101.266 153.402 101.159 153.105ZM102.595 146.317L105.644 154.784L104.618 155.154L101.569 146.686L102.595 146.317ZM109.796 153.414C109.381 153.563 108.979 153.629 108.591 153.611C108.204 153.588 107.844 153.492 107.509 153.322C107.177 153.151 106.884 152.912 106.628 152.605C106.372 152.299 106.169 151.936 106.018 151.517L105.935 151.286C105.76 150.8 105.676 150.343 105.683 149.913C105.689 149.479 105.767 149.085 105.918 148.732C106.069 148.379 106.276 148.078 106.54 147.829C106.803 147.581 107.102 147.396 107.437 147.276C107.863 147.122 108.257 147.064 108.619 147.099C108.984 147.134 109.314 147.248 109.607 147.441C109.9 147.63 110.158 147.886 110.382 148.208C110.604 148.527 110.791 148.895 110.942 149.314L111.107 149.772L106.652 151.376L106.353 150.543L109.787 149.307L109.759 149.23C109.649 148.97 109.502 148.733 109.316 148.517C109.134 148.301 108.913 148.148 108.653 148.059C108.392 147.97 108.088 147.988 107.738 148.114C107.507 148.197 107.312 148.324 107.152 148.493C106.992 148.659 106.876 148.862 106.806 149.104C106.735 149.345 106.71 149.617 106.732 149.921C106.755 150.224 106.83 150.556 106.96 150.916L107.043 151.148C107.145 151.431 107.28 151.683 107.447 151.906C107.617 152.123 107.81 152.298 108.029 152.431C108.25 152.563 108.489 152.643 108.744 152.672C109.003 152.699 109.272 152.662 109.552 152.561C109.912 152.432 110.19 152.248 110.387 152.011C110.584 151.774 110.732 151.499 110.831 151.185L111.625 151.454C111.567 151.695 111.47 151.939 111.335 152.187C111.2 152.435 111.007 152.666 110.756 152.881C110.509 153.095 110.189 153.272 109.796 153.414ZM113.014 142.565L114.04 142.196L116.672 149.506L117 150.695L116.063 151.033L113.014 142.565ZM120.027 146.18L120.068 146.296C120.225 146.73 120.318 147.151 120.349 147.559C120.378 147.964 120.343 148.338 120.242 148.681C120.142 149.025 119.975 149.323 119.743 149.577C119.51 149.831 119.208 150.025 118.837 150.158C118.459 150.295 118.103 150.35 117.77 150.325C117.439 150.294 117.132 150.191 116.849 150.015C116.565 149.839 116.302 149.597 116.059 149.291C115.819 148.982 115.598 148.618 115.397 148.196L115.214 147.689C115.1 147.232 115.036 146.809 115.024 146.418C115.016 146.027 115.065 145.673 115.172 145.357C115.276 145.037 115.447 144.761 115.684 144.531C115.919 144.296 116.224 144.112 116.599 143.977C116.974 143.842 117.333 143.796 117.676 143.838C118.018 143.877 118.335 143.995 118.626 144.194C118.921 144.39 119.188 144.658 119.426 144.996C119.662 145.33 119.863 145.725 120.027 146.18ZM119.043 146.665L119.001 146.55C118.894 146.252 118.766 145.983 118.617 145.741C118.467 145.497 118.295 145.297 118.102 145.142C117.908 144.984 117.691 144.883 117.452 144.841C117.211 144.794 116.946 144.824 116.655 144.928C116.398 145.021 116.19 145.146 116.03 145.303C115.875 145.458 115.758 145.635 115.68 145.834C115.6 146.028 115.553 146.236 115.537 146.458C115.524 146.675 115.533 146.891 115.565 147.108L116.044 148.437C116.195 148.673 116.38 148.886 116.598 149.078C116.819 149.264 117.069 149.392 117.347 149.462C117.629 149.531 117.938 149.505 118.272 149.384C118.548 149.285 118.763 149.145 118.918 148.965C119.076 148.779 119.179 148.566 119.229 148.323C119.283 148.08 119.292 147.817 119.257 147.535C119.221 147.253 119.15 146.963 119.043 146.665ZM120.468 139.881L123.517 148.349L122.491 148.718L119.442 140.25L120.468 139.881ZM123.834 144.94L123.788 144.814C123.633 144.384 123.552 143.962 123.545 143.55C123.536 143.134 123.6 142.747 123.738 142.391C123.874 142.03 124.082 141.714 124.362 141.443C124.641 141.169 124.988 140.956 125.403 140.807C125.822 140.656 126.227 140.598 126.617 140.632C127.009 140.66 127.373 140.77 127.707 140.961C128.044 141.147 128.342 141.403 128.6 141.73C128.857 142.052 129.063 142.428 129.218 142.858L129.264 142.985C129.419 143.415 129.5 143.836 129.507 144.249C129.515 144.662 129.449 145.049 129.309 145.41C129.172 145.767 128.964 146.083 128.685 146.357C128.408 146.627 128.06 146.838 127.641 146.988C127.222 147.139 126.819 147.2 126.43 147.169C126.04 147.135 125.676 147.025 125.34 146.839C125.005 146.649 124.709 146.392 124.452 146.069C124.195 145.747 123.989 145.37 123.834 144.94ZM124.808 144.446L124.854 144.573C124.961 144.871 125.097 145.139 125.262 145.379C125.426 145.615 125.614 145.809 125.826 145.96C126.043 146.111 126.278 146.207 126.534 146.248C126.788 146.285 127.057 146.252 127.34 146.15C127.619 146.05 127.843 145.905 128.011 145.716C128.182 145.521 128.301 145.298 128.368 145.045C128.435 144.793 128.456 144.524 128.432 144.238C128.41 143.947 128.346 143.652 128.239 143.354L128.193 143.228C128.087 142.934 127.95 142.669 127.783 142.435C127.618 142.195 127.427 142 127.211 141.85C126.997 141.694 126.763 141.596 126.507 141.555C126.255 141.513 125.988 141.543 125.705 141.645C125.426 141.745 125.201 141.893 125.03 142.087C124.863 142.28 124.744 142.506 124.675 142.763C124.608 143.015 124.588 143.286 124.613 143.576C124.637 143.862 124.702 144.152 124.808 144.446ZM133.31 138.085L134.236 137.751L136.338 143.589C136.527 144.115 136.582 144.602 136.503 145.05C136.423 145.498 136.227 145.886 135.913 146.215C135.605 146.546 135.203 146.801 134.706 146.979C134.501 147.053 134.246 147.108 133.943 147.142C133.645 147.179 133.334 147.168 133.01 147.111C132.691 147.055 132.395 146.931 132.123 146.739L132.439 145.94C132.797 146.151 133.134 146.267 133.448 146.286C133.766 146.305 134.059 146.266 134.328 146.169C134.651 146.053 134.908 145.891 135.1 145.685C135.292 145.479 135.409 145.234 135.451 144.949C135.499 144.666 135.46 144.352 135.336 144.006L133.689 139.43L133.31 138.085ZM130.3 142.612L130.259 142.496C130.095 142.041 129.999 141.608 129.972 141.198C129.947 140.784 129.988 140.406 130.093 140.065C130.202 139.722 130.376 139.427 130.615 139.179C130.853 138.928 131.153 138.737 131.517 138.606C131.892 138.471 132.243 138.419 132.57 138.451C132.899 138.477 133.206 138.581 133.491 138.76C133.778 138.935 134.041 139.177 134.281 139.485C134.521 139.793 134.742 140.16 134.945 140.585L135.128 141.092C135.245 141.544 135.307 141.966 135.315 142.357C135.327 142.747 135.278 143.101 135.168 143.419C135.062 143.735 134.891 144.011 134.656 144.245C134.419 144.475 134.112 144.659 133.733 144.795C133.377 144.923 133.026 144.964 132.681 144.918C132.341 144.871 132.018 144.748 131.714 144.55C131.411 144.352 131.138 144.09 130.895 143.762C130.655 143.429 130.457 143.046 130.3 142.612ZM131.279 142.129L131.32 142.245C131.427 142.543 131.557 142.811 131.71 143.051C131.867 143.289 132.043 143.485 132.24 143.639C132.44 143.791 132.659 143.888 132.899 143.931C133.137 143.97 133.394 143.939 133.67 143.84C134.008 143.718 134.261 143.546 134.43 143.323C134.599 143.101 134.705 142.849 134.749 142.567C134.797 142.284 134.808 141.992 134.782 141.69L134.304 140.361C134.191 140.173 134.058 140.001 133.906 139.844C133.756 139.682 133.589 139.551 133.404 139.452C133.221 139.348 133.018 139.286 132.795 139.266C132.572 139.247 132.332 139.284 132.075 139.376C131.795 139.477 131.576 139.622 131.416 139.813C131.259 139.998 131.152 140.215 131.096 140.463C131.043 140.707 131.032 140.972 131.065 141.259C131.1 141.541 131.171 141.831 131.279 142.129Z" fill="#3A3A3A"/>
</svg>
