<svg width="568" height="518" viewBox="0 0 568 518" fill="none" xmlns="http://www.w3.org/2000/svg">
<path d="M566.623 353.565L391.269 1L9.55383 129.205L169.938 488.181L566.623 353.565Z" fill="white" stroke="black"/>
<path d="M566.623 381.343L164.592 517.027L1 160.189L8.48461 130.274L169.938 488.181L566.623 354.633V381.343Z" fill="#D5CDCD" fill-opacity="0.29"/>
<path d="M169.938 488.181L164.592 517.027M169.938 488.181L566.623 354.634V381.343L164.592 517.027M169.938 488.181L8.48461 130.274L1 160.189L164.592 517.027" stroke="black"/>
<path d="M127.612 170.546L143.745 213.09L135.007 216.398L118.873 173.855L127.612 170.546ZM140.705 165.589L143.309 172.455L108.589 185.601L105.985 178.735L140.705 165.589ZM173.338 202.553C170.883 203.483 168.534 203.927 166.29 203.885C164.039 203.824 161.965 203.351 160.069 202.465C158.193 201.571 156.544 200.335 155.121 198.758C153.691 197.161 152.577 195.31 151.779 193.207L151.336 192.038C150.428 189.642 149.937 187.321 149.866 185.076C149.794 182.831 150.115 180.738 150.827 178.798C151.559 176.85 152.693 175.139 154.229 173.667C155.757 172.175 157.671 170.993 159.97 170.123C162.211 169.275 164.339 168.892 166.353 168.976C168.368 169.059 170.218 169.562 171.905 170.483C173.61 171.396 175.127 172.693 176.455 174.374C177.775 176.034 178.875 178.024 179.754 180.342L181.084 183.848L155.95 193.365L153.823 187.755L170.686 181.37L170.442 180.727C169.999 179.558 169.389 178.597 168.613 177.844C167.85 177.064 166.945 176.56 165.901 176.331C164.856 176.103 163.681 176.236 162.376 176.73C161.265 177.151 160.403 177.756 159.789 178.545C159.175 179.335 158.78 180.264 158.606 181.332C158.452 182.393 158.473 183.566 158.67 184.85C158.88 186.107 159.25 187.437 159.782 188.84L160.225 190.009C160.706 191.275 161.324 192.377 162.081 193.316C162.858 194.247 163.725 194.977 164.683 195.505C165.66 196.026 166.707 196.32 167.825 196.387C168.961 196.447 170.143 196.244 171.371 195.78C172.891 195.204 174.192 194.377 175.276 193.298C176.372 192.193 177.168 190.856 177.665 189.286L183.441 192.178C183.14 193.384 182.582 194.642 181.764 195.954C180.967 197.259 179.876 198.496 178.493 199.666C177.102 200.816 175.384 201.779 173.338 202.553ZM201.677 184.304C202.71 183.913 203.552 183.372 204.203 182.68C204.847 181.968 205.256 181.167 205.431 180.277C205.618 179.36 205.532 178.4 205.175 177.4L213.095 174.401C213.918 176.629 214.073 178.831 213.562 181.007C213.043 183.164 211.988 185.112 210.397 186.85C208.798 188.57 206.781 189.89 204.346 190.812C201.891 191.742 199.593 192.144 197.451 192.02C195.329 191.888 193.39 191.329 191.636 190.345C189.874 189.342 188.325 187.99 186.99 186.29C185.647 184.571 184.555 182.601 183.713 180.38L183.391 179.533C182.542 177.293 182.053 175.094 181.926 172.937C181.791 170.76 182.055 168.722 182.716 166.824C183.37 164.905 184.448 163.194 185.949 161.69C187.451 160.185 189.42 158.972 191.855 158.05C194.446 157.069 196.905 156.706 199.23 156.962C201.574 157.21 203.653 158.05 205.465 159.48C207.289 160.883 208.688 162.837 209.66 165.343L201.74 168.342C201.322 167.297 200.736 166.427 199.982 165.733C199.248 165.03 198.385 164.577 197.394 164.373C196.416 164.142 195.352 164.245 194.202 164.68C192.975 165.145 192.071 165.788 191.491 166.609C190.904 167.41 190.566 168.34 190.477 169.398C190.381 170.437 190.459 171.555 190.712 172.751C190.977 173.92 191.343 175.119 191.808 176.346L192.129 177.193C192.595 178.421 193.12 179.57 193.704 180.64C194.288 181.711 194.961 182.604 195.722 183.318C196.503 184.025 197.379 184.484 198.35 184.695C199.321 184.907 200.43 184.776 201.677 184.304ZM213.29 135.432L230.31 180.313L221.893 183.5L204.873 138.619L213.29 135.432ZM222.696 163.849L220.387 164.723C219.572 162.514 219.096 160.378 218.959 158.313C218.815 156.229 219.011 154.306 219.546 152.544C220.073 150.763 220.924 149.216 222.097 147.903C223.289 146.582 224.782 145.583 226.575 144.904C228.133 144.314 229.631 144.003 231.067 143.971C232.515 143.913 233.882 144.198 235.167 144.825C236.464 145.425 237.662 146.409 238.759 147.775C239.857 149.142 240.827 150.936 241.669 153.156L249.248 173.142L240.773 176.351L233.171 156.307C232.64 154.904 232.018 153.881 231.306 153.237C230.606 152.567 229.813 152.21 228.927 152.166C228.054 152.096 227.072 152.267 225.981 152.681C224.773 153.138 223.825 153.753 223.138 154.526C222.47 155.291 222.034 156.169 221.83 157.159C221.619 158.13 221.596 159.186 221.762 160.326C221.927 161.467 222.238 162.641 222.696 163.849ZM281.899 143.437L271.056 147.542L268.464 140.705L279.306 136.6C280.982 135.965 282.242 135.176 283.087 134.232C283.925 133.269 284.399 132.198 284.51 131.021C284.62 129.843 284.439 128.63 283.966 127.384C283.486 126.117 282.796 125.031 281.895 124.125C280.994 123.218 279.892 122.633 278.589 122.369C277.285 122.105 275.796 122.29 274.12 122.925L266.317 125.879L279.847 161.557L271.079 164.876L254.946 122.333L271.516 116.058C274.848 114.797 277.931 114.32 280.766 114.628C283.614 114.909 286.069 115.861 288.133 117.485C290.198 119.11 291.743 121.276 292.77 123.983C293.812 126.73 294.08 129.346 293.574 131.832C293.068 134.318 291.824 136.56 289.841 138.558C287.878 140.549 285.231 142.176 281.899 143.437ZM323.144 137.009L317.803 122.926C317.419 121.913 316.924 121.109 316.32 120.513C315.708 119.898 314.973 119.519 314.117 119.376C313.28 119.225 312.316 119.356 311.225 119.769C310.29 120.123 309.544 120.595 308.987 121.184C308.424 121.754 308.071 122.411 307.93 123.155C307.782 123.88 307.859 124.641 308.162 125.44L299.745 128.627C299.235 127.283 299.063 125.889 299.228 124.445C299.394 123.001 299.897 121.597 300.738 120.231C301.572 118.846 302.708 117.581 304.145 116.435C305.602 115.282 307.353 114.318 309.399 113.544C311.854 112.614 314.191 112.197 316.411 112.292C318.63 112.387 320.596 113.046 322.307 114.27C324.038 115.485 325.369 117.321 326.3 119.775L331.43 133.304C332.088 135.037 332.734 136.419 333.37 137.448C333.998 138.458 334.671 139.294 335.391 139.957L335.579 140.454L327.075 143.674C326.34 142.972 325.622 142.019 324.921 140.814C324.231 139.583 323.638 138.315 323.144 137.009ZM319.656 124.463L321.52 129.203L316.815 130.985C315.704 131.406 314.788 131.897 314.066 132.46C313.343 133.024 312.808 133.638 312.459 134.305C312.103 134.952 311.913 135.626 311.888 136.326C311.884 137.018 312.018 137.725 312.291 138.445C312.565 139.166 312.978 139.756 313.531 140.215C314.076 140.654 314.723 140.922 315.472 141.017C316.214 141.092 317.004 140.972 317.841 140.654C319.108 140.175 320.113 139.505 320.856 138.644C321.599 137.784 322.083 136.887 322.309 135.955C322.555 135.016 322.561 134.211 322.33 133.542L325.903 136.265C325.894 137.182 325.779 138.172 325.559 139.236C325.358 140.292 324.992 141.355 324.462 142.425C323.924 143.475 323.173 144.461 322.208 145.383C321.236 146.286 319.961 147.036 318.383 147.634C316.376 148.394 314.403 148.684 312.463 148.505C310.536 148.299 308.825 147.666 307.331 146.605C305.849 145.518 304.761 144.059 304.067 142.228C303.439 140.572 303.193 138.983 303.329 137.461C303.465 135.94 303.971 134.512 304.846 133.178C305.734 131.817 307.008 130.566 308.67 129.424C310.324 128.263 312.359 127.226 314.775 126.311L319.656 124.463ZM337.706 103.494L349.695 135.109L341.249 138.307L329.26 106.692L337.706 103.494ZM325.609 98.6511C325.143 97.4238 325.188 96.2486 325.742 95.1253C326.297 94.0021 327.295 93.1675 328.737 92.6216C330.159 92.083 331.45 92.0508 332.61 92.5249C333.79 92.9916 334.612 93.8385 335.078 95.0657C335.543 96.293 335.489 97.4719 334.915 98.6025C334.361 99.7258 333.372 100.557 331.95 101.095C330.508 101.641 329.207 101.677 328.047 101.203C326.887 100.729 326.074 99.8783 325.609 98.6511ZM348.515 84.2304L365.535 129.112L357.089 132.31L340.069 87.4285L348.515 84.2304ZM138.689 251.205L139.321 252.871L133.973 254.896L133.341 253.23L138.689 251.205ZM146.586 256.924L144.558 257.692L139.589 244.587C139.264 243.732 139.145 242.955 139.23 242.254C139.32 241.543 139.6 240.928 140.071 240.407C140.539 239.879 141.175 239.462 141.979 239.158C142.213 239.07 142.452 238.996 142.697 238.936C142.949 238.874 143.2 238.83 143.448 238.802L143.966 240.498C143.799 240.52 143.614 240.561 143.411 240.621C143.216 240.678 143.023 240.743 142.833 240.815C142.402 240.978 142.062 241.207 141.815 241.501C141.572 241.785 141.432 242.122 141.396 242.512C141.36 242.901 141.433 243.337 141.616 243.819L146.586 256.924ZM144.61 244.114L145.2 245.67L138.778 248.102L138.188 246.546L144.61 244.114ZM157.58 249.628L154.123 240.512L156.162 239.74L160.658 251.596L158.718 252.33L157.58 249.628ZM157.017 246.985L157.852 246.644C158.151 247.432 158.344 248.195 158.431 248.93C158.522 249.656 158.478 250.333 158.299 250.96C158.119 251.588 157.786 252.153 157.299 252.655C156.81 253.149 156.141 253.557 155.294 253.878C154.717 254.096 154.155 254.213 153.609 254.227C153.071 254.239 152.563 254.135 152.087 253.914C151.61 253.693 151.171 253.338 150.767 252.847C150.371 252.354 150.024 251.713 149.725 250.924L146.824 243.276L148.852 242.508L151.76 250.178C151.963 250.711 152.189 251.131 152.439 251.438C152.693 251.734 152.961 251.946 153.243 252.073C153.53 252.19 153.816 252.24 154.103 252.223C154.396 252.204 154.682 252.142 154.959 252.037C155.821 251.71 156.442 251.287 156.822 250.768C157.198 250.241 157.39 249.655 157.396 249.009C157.406 248.354 157.28 247.679 157.017 246.985ZM162.24 240.333L165.776 249.658L163.748 250.426L159.252 238.57L161.17 237.844L162.24 240.333ZM162.875 243.464L162.019 243.75C161.719 242.937 161.555 242.142 161.529 241.367C161.499 240.584 161.599 239.857 161.829 239.186C162.059 238.514 162.414 237.928 162.893 237.429C163.377 236.921 163.977 236.53 164.693 236.259C165.277 236.038 165.834 235.919 166.362 235.903C166.888 235.879 167.38 235.977 167.839 236.196C168.306 236.412 168.73 236.761 169.113 237.242C169.494 237.716 169.832 238.344 170.129 239.126L173.075 246.894L171.036 247.666L168.082 239.876C167.846 239.255 167.567 238.793 167.243 238.489C166.916 238.178 166.545 238.005 166.131 237.97C165.714 237.928 165.25 238.003 164.738 238.197C164.234 238.388 163.814 238.668 163.478 239.038C163.149 239.404 162.905 239.831 162.747 240.317C162.596 240.8 162.528 241.314 162.543 241.86C162.562 242.396 162.673 242.93 162.875 243.464ZM148.618 277.386L149.249 279.051L143.901 281.076L143.269 279.411L148.618 277.386ZM153.958 270.515L154.548 272.07L148.137 274.498L147.547 272.942L153.958 270.515ZM148.624 269.239L150.651 268.471L155.126 280.272C155.279 280.674 155.456 280.953 155.658 281.111C155.859 281.268 156.071 281.343 156.293 281.334C156.516 281.325 156.74 281.277 156.967 281.192C157.135 281.128 157.304 281.047 157.476 280.949C157.652 280.84 157.783 280.757 157.87 280.699L158.509 282.35C158.367 282.462 158.173 282.589 157.927 282.733C157.691 282.881 157.39 283.024 157.024 283.162C156.528 283.35 156.034 283.425 155.542 283.385C155.051 283.346 154.594 283.143 154.171 282.777C153.753 282.4 153.394 281.818 153.095 281.029L148.624 269.239ZM167.055 276.795L164.741 270.692C164.564 270.225 164.315 269.855 163.995 269.584C163.679 269.302 163.299 269.137 162.854 269.088C162.41 269.039 161.913 269.119 161.365 269.326C160.854 269.52 160.438 269.778 160.117 270.1C159.804 270.419 159.591 270.762 159.48 271.13C159.376 271.495 159.387 271.842 159.511 272.171L157.484 272.939C157.323 272.515 157.274 272.053 157.335 271.554C157.396 271.055 157.568 270.56 157.849 270.069C158.136 269.568 158.53 269.109 159.032 268.693C159.539 268.268 160.151 267.919 160.867 267.648C161.729 267.321 162.544 267.18 163.313 267.223C164.088 267.264 164.775 267.509 165.372 267.96C165.973 268.4 166.442 269.062 166.777 269.946L168.871 275.469C169.021 275.863 169.213 276.271 169.447 276.692C169.689 277.109 169.941 277.453 170.202 277.722L170.268 277.897L168.153 278.698C167.962 278.503 167.764 278.223 167.559 277.858C167.351 277.486 167.183 277.131 167.055 276.795ZM165.449 271.502L166.011 272.918L163.962 273.694C163.384 273.912 162.887 274.155 162.47 274.421C162.051 274.68 161.722 274.959 161.484 275.258C161.247 275.557 161.1 275.876 161.045 276.214C160.986 276.545 161.027 276.894 161.165 277.259C161.306 277.631 161.519 277.939 161.804 278.182C162.088 278.426 162.433 278.575 162.838 278.63C163.248 278.675 163.701 278.604 164.198 278.416C164.819 278.181 165.317 277.842 165.693 277.399C166.068 276.956 166.322 276.492 166.456 276.007C166.597 275.52 166.61 275.093 166.496 274.726L167.732 275.374C167.797 275.7 167.787 276.092 167.702 276.55C167.617 277.009 167.449 277.482 167.2 277.969C166.954 278.446 166.615 278.896 166.182 279.319C165.754 279.731 165.218 280.06 164.576 280.303C163.772 280.607 163.007 280.717 162.282 280.633C161.563 280.546 160.937 280.303 160.401 279.904C159.87 279.495 159.48 278.962 159.231 278.305C158.99 277.669 158.902 277.063 158.967 276.487C159.03 275.903 159.234 275.363 159.58 274.864C159.923 274.358 160.392 273.897 160.985 273.48C161.579 273.063 162.282 272.701 163.093 272.394L165.449 271.502ZM166.647 260.021L168.686 259.249L174.196 273.778L174.893 276.146L173.03 276.851L166.647 260.021ZM180.794 267.02L180.881 267.25C181.208 268.112 181.409 268.95 181.485 269.766C181.557 270.573 181.499 271.322 181.309 272.012C181.119 272.702 180.796 273.305 180.34 273.82C179.884 274.335 179.287 274.733 178.549 275.012C177.796 275.297 177.087 275.42 176.42 275.38C175.757 275.33 175.14 275.133 174.567 274.791C173.994 274.448 173.459 273.974 172.962 273.368C172.473 272.76 172.019 272.038 171.602 271.202L171.22 270.194C170.975 269.284 170.834 268.439 170.797 267.66C170.768 266.877 170.854 266.168 171.056 265.532C171.255 264.888 171.587 264.332 172.053 263.864C172.515 263.388 173.119 263.009 173.865 262.726C174.61 262.444 175.327 262.34 176.015 262.414C176.7 262.48 177.337 262.706 177.927 263.093C178.523 263.477 179.065 264.003 179.552 264.67C180.037 265.331 180.451 266.114 180.794 267.02ZM178.843 268.021L178.756 267.791C178.531 267.2 178.266 266.665 177.96 266.188C177.651 265.704 177.301 265.31 176.91 265.007C176.517 264.696 176.08 264.502 175.599 264.425C175.116 264.341 174.586 264.408 174.009 264.627C173.497 264.82 173.085 265.077 172.771 265.396C172.465 265.712 172.238 266.07 172.088 266.469C171.936 266.861 171.848 267.279 171.824 267.722C171.804 268.155 171.831 268.588 171.903 269.02L172.904 271.661C173.215 272.128 173.592 272.549 174.035 272.925C174.482 273.29 174.986 273.538 175.545 273.668C176.112 273.796 176.727 273.735 177.392 273.483C177.94 273.275 178.366 272.989 178.67 272.623C178.979 272.247 179.179 271.816 179.271 271.331C179.37 270.842 179.379 270.316 179.299 269.753C179.22 269.19 179.067 268.613 178.843 268.021ZM181.465 254.411L187.847 271.241L185.809 272.013L179.426 255.182L181.465 254.411ZM196.106 268.364C195.28 268.677 194.479 268.822 193.701 268.799C192.928 268.766 192.204 268.585 191.528 268.256C190.859 267.924 190.264 267.456 189.742 266.852C189.22 266.248 188.802 265.529 188.486 264.696L188.311 264.236C187.946 263.272 187.763 262.359 187.762 261.499C187.759 260.632 187.903 259.842 188.193 259.131C188.483 258.42 188.887 257.811 189.406 257.306C189.924 256.8 190.516 256.422 191.181 256.17C192.028 255.849 192.814 255.718 193.539 255.778C194.271 255.835 194.933 256.052 195.527 256.429C196.119 256.798 196.644 257.301 197.102 257.938C197.558 258.567 197.944 259.298 198.26 260.131L198.605 261.04L189.75 264.393L189.122 262.739L195.95 260.153L195.892 260C195.663 259.485 195.359 259.015 194.981 258.59C194.61 258.163 194.163 257.864 193.639 257.695C193.115 257.526 192.506 257.573 191.812 257.835C191.352 258.01 190.966 258.269 190.653 258.613C190.338 258.949 190.114 259.36 189.98 259.845C189.846 260.33 189.807 260.875 189.861 261.481C189.915 262.087 190.078 262.748 190.35 263.464L190.524 263.924C190.738 264.487 191.015 264.987 191.357 265.426C191.703 265.855 192.097 266.198 192.538 266.458C192.986 266.714 193.466 266.866 193.977 266.915C194.496 266.961 195.033 266.879 195.588 266.668C196.304 266.397 196.855 266.022 197.241 265.541C197.627 265.061 197.914 264.506 198.101 263.875L199.698 264.385C199.589 264.869 199.404 265.361 199.142 265.861C198.881 266.362 198.503 266.83 198.009 267.268C197.522 267.703 196.888 268.068 196.106 268.364ZM203.473 251.766L204.063 253.322L197.651 255.75L197.061 254.194L203.473 251.766ZM198.138 250.491L200.166 249.723L204.641 261.524C204.793 261.926 204.971 262.205 205.172 262.363C205.374 262.52 205.586 262.595 205.808 262.586C206.03 262.577 206.255 262.529 206.481 262.444C206.649 262.38 206.819 262.299 206.991 262.201C207.167 262.092 207.298 262.009 207.385 261.951L208.023 263.601C207.882 263.713 207.688 263.841 207.442 263.985C207.205 264.133 206.905 264.276 206.539 264.414C206.042 264.602 205.548 264.676 205.057 264.637C204.566 264.597 204.109 264.394 203.686 264.028C203.267 263.652 202.909 263.07 202.609 262.281L198.138 250.491ZM218.939 259.468L216.911 260.236L211.942 247.131C211.618 246.276 211.498 245.499 211.583 244.798C211.673 244.088 211.954 243.472 212.425 242.951C212.893 242.423 213.529 242.007 214.332 241.702C214.566 241.614 214.805 241.54 215.05 241.481C215.303 241.419 215.553 241.374 215.802 241.347L216.319 243.043C216.152 243.064 215.967 243.105 215.764 243.165C215.569 243.222 215.376 243.287 215.186 243.359C214.755 243.522 214.416 243.751 214.168 244.045C213.925 244.329 213.785 244.666 213.749 245.056C213.713 245.445 213.786 245.881 213.969 246.363L218.939 259.468ZM216.964 246.658L217.554 248.214L211.131 250.646L210.541 249.09L216.964 246.658ZM221.955 246.898L225.745 256.891L223.717 257.659L219.221 245.803L221.194 245.056L221.955 246.898ZM224.928 243.567L225.632 245.456C225.45 245.483 225.281 245.522 225.125 245.573C224.973 245.614 224.802 245.67 224.612 245.742C224.145 245.919 223.76 246.148 223.457 246.43C223.154 246.712 222.929 247.031 222.78 247.388C222.631 247.745 222.553 248.134 222.546 248.554C222.542 248.965 222.601 249.394 222.72 249.842L222.275 250.386C222.004 249.67 221.818 248.972 221.719 248.291C221.627 247.608 221.639 246.968 221.756 246.372C221.87 245.77 222.106 245.246 222.463 244.801C222.826 244.347 223.328 243.998 223.971 243.754C224.117 243.699 224.292 243.653 224.496 243.618C224.697 243.575 224.841 243.558 224.928 243.567ZM229.03 242.089L233.526 253.945L231.487 254.717L226.992 242.861L229.03 242.089ZM225.646 239.775C225.521 239.446 225.514 239.131 225.626 238.83C225.744 238.526 226.001 238.299 226.395 238.15C226.783 238.003 227.122 238.004 227.412 238.153C227.71 238.3 227.921 238.537 228.046 238.866C228.165 239.18 228.161 239.49 228.035 239.797C227.914 240.094 227.659 240.315 227.272 240.462C226.878 240.611 226.537 240.615 226.249 240.473C225.966 240.322 225.765 240.089 225.646 239.775ZM241.785 251.069C240.959 251.381 240.158 251.526 239.38 251.503C238.607 251.47 237.883 251.289 237.207 250.96C236.538 250.629 235.943 250.161 235.421 249.556C234.899 248.952 234.481 248.233 234.165 247.4L233.99 246.94C233.625 245.976 233.442 245.064 233.441 244.203C233.438 243.336 233.581 242.546 233.872 241.835C234.162 241.124 234.566 240.515 235.084 240.01C235.603 239.504 236.195 239.126 236.86 238.874C237.707 238.553 238.493 238.423 239.218 238.483C239.95 238.54 240.612 238.756 241.206 239.133C241.798 239.502 242.323 240.005 242.781 240.642C243.237 241.271 243.623 242.002 243.939 242.835L244.284 243.744L235.428 247.097L234.801 245.443L241.629 242.858L241.571 242.704C241.342 242.189 241.038 241.719 240.66 241.295C240.289 240.867 239.842 240.569 239.318 240.399C238.794 240.23 238.185 240.277 237.491 240.54C237.031 240.714 236.645 240.973 236.332 241.317C236.017 241.653 235.792 242.064 235.659 242.549C235.525 243.034 235.486 243.58 235.54 244.186C235.594 244.792 235.757 245.452 236.029 246.168L236.203 246.629C236.417 247.191 236.694 247.692 237.036 248.13C237.382 248.559 237.776 248.903 238.217 249.162C238.665 249.418 239.145 249.571 239.656 249.619C240.175 249.665 240.712 249.583 241.267 249.373C241.983 249.102 242.534 248.726 242.92 248.245C243.306 247.765 243.593 247.21 243.78 246.579L245.377 247.09C245.268 247.574 245.083 248.066 244.821 248.566C244.56 249.066 244.182 249.535 243.688 249.972C243.201 250.407 242.567 250.773 241.785 251.069ZM247.174 238.114L250.71 247.439L248.683 248.206L244.187 236.35L246.105 235.624L247.174 238.114ZM247.81 241.244L246.953 241.531C246.653 240.717 246.49 239.923 246.463 239.147C246.434 238.365 246.534 237.638 246.764 236.966C246.994 236.294 247.348 235.709 247.828 235.21C248.311 234.701 248.911 234.311 249.627 234.04C250.212 233.818 250.768 233.7 251.297 233.683C251.823 233.66 252.315 233.757 252.774 233.976C253.24 234.192 253.665 234.541 254.048 235.022C254.428 235.497 254.767 236.124 255.063 236.906L258.009 244.675L255.971 245.447L253.017 237.656C252.781 237.035 252.501 236.573 252.177 236.27C251.851 235.959 251.48 235.786 251.066 235.751C250.649 235.708 250.184 235.784 249.673 235.977C249.169 236.168 248.749 236.448 248.412 236.818C248.084 237.185 247.84 237.611 247.682 238.097C247.531 238.58 247.463 239.095 247.477 239.641C247.497 240.176 247.608 240.711 247.81 241.244ZM267.691 238.378L262.181 223.848L264.219 223.076L270.602 239.907L268.739 240.612L267.691 238.378ZM258.387 237.903L258.299 237.673C257.956 236.767 257.754 235.904 257.693 235.083C257.637 234.252 257.713 233.493 257.92 232.805C258.134 232.114 258.472 231.518 258.934 231.017C259.4 230.507 259.988 230.117 260.696 229.849C261.442 229.566 262.142 229.452 262.797 229.504C263.456 229.547 264.074 229.743 264.649 230.094C265.23 230.434 265.764 230.908 266.254 231.516C266.744 232.124 267.199 232.85 267.619 233.693L268.001 234.701C268.25 235.601 268.39 236.442 268.419 237.225C268.456 238.004 268.37 238.714 268.161 239.353C267.959 239.989 267.627 240.545 267.164 241.021C266.698 241.489 266.089 241.866 265.337 242.151C264.643 242.414 263.95 242.505 263.259 242.424C262.576 242.34 261.923 242.107 261.302 241.724C260.688 241.338 260.129 240.823 259.625 240.178C259.126 239.524 258.714 238.765 258.387 237.903ZM260.338 236.901L260.425 237.131C260.65 237.723 260.918 238.256 261.232 238.731C261.553 239.202 261.916 239.587 262.321 239.884C262.727 240.182 263.17 240.369 263.65 240.446C264.128 240.516 264.64 240.447 265.188 240.24C265.861 239.985 266.358 239.634 266.681 239.186C267.012 238.735 267.22 238.226 267.305 237.659C267.391 237.092 267.403 236.507 267.341 235.904L266.34 233.263C266.1 232.894 265.825 232.555 265.516 232.247C265.211 231.928 264.872 231.672 264.498 231.479C264.129 231.276 263.721 231.159 263.275 231.128C262.835 231.094 262.36 231.173 261.849 231.367C261.293 231.577 260.859 231.875 260.546 232.261C260.237 232.637 260.031 233.074 259.928 233.573C259.822 234.064 259.806 234.596 259.882 235.169C259.961 235.732 260.113 236.31 260.338 236.901ZM269.578 221.047L275.961 237.878L273.922 238.65L267.54 221.819L269.578 221.047ZM282.082 234.157L281.35 222.279L283.52 221.457L283.954 236.944C283.955 237.278 283.928 237.647 283.873 238.052C283.828 238.462 283.724 238.873 283.563 239.285C283.402 239.697 283.16 240.072 282.837 240.412C282.525 240.755 282.098 241.03 281.558 241.234C281.397 241.295 281.184 241.351 280.919 241.401C280.654 241.451 280.465 241.481 280.351 241.491L279.717 239.851C279.778 239.836 279.873 239.809 280 239.769C280.137 239.734 280.231 239.707 280.282 239.688C280.742 239.513 281.109 239.303 281.384 239.057C281.661 238.819 281.855 238.515 281.966 238.148C282.088 237.784 282.136 237.327 282.111 236.777L282.082 234.157ZM275.63 224.445L282.2 232.483L283.536 234.421L282.361 235.718L273.416 225.283L275.63 224.445ZM158.546 303.567L159.177 305.232L153.829 307.257L153.198 305.592L158.546 303.567ZM166.604 295.666L168.445 294.969L172.846 306.573C173.242 307.617 173.368 308.589 173.224 309.487C173.08 310.385 172.7 311.168 172.084 311.836C171.478 312.508 170.682 313.031 169.696 313.404C169.287 313.559 168.78 313.676 168.175 313.755C167.579 313.838 166.957 313.827 166.307 313.722C165.668 313.622 165.072 313.384 164.52 313.008L165.126 311.4C165.85 311.811 166.527 312.031 167.156 312.06C167.793 312.087 168.378 311.999 168.911 311.797C169.554 311.553 170.063 311.223 170.44 310.804C170.816 310.386 171.042 309.891 171.117 309.32C171.203 308.753 171.116 308.126 170.855 307.439L167.407 298.345L166.604 295.666ZM160.737 304.817L160.65 304.587C160.306 303.681 160.101 302.819 160.033 302.001C159.969 301.173 160.037 300.416 160.237 299.731C160.444 299.043 160.782 298.447 161.251 297.944C161.718 297.433 162.312 297.04 163.036 296.767C163.781 296.484 164.481 296.37 165.136 296.422C165.796 296.465 166.413 296.661 166.989 297.012C167.569 297.352 168.104 297.826 168.594 298.434C169.083 299.042 169.538 299.768 169.958 300.611L170.34 301.619C170.59 302.519 170.729 303.36 170.758 304.143C170.795 304.922 170.709 305.632 170.5 306.271C170.298 306.907 169.966 307.463 169.503 307.939C169.038 308.407 168.429 308.784 167.676 309.069C166.967 309.337 166.268 309.431 165.577 309.35C164.893 309.266 164.245 309.032 163.63 308.646C163.016 308.26 162.461 307.744 161.965 307.096C161.473 306.439 161.064 305.679 160.737 304.817ZM162.677 303.819L162.765 304.049C162.989 304.641 163.258 305.174 163.571 305.648C163.892 306.12 164.252 306.506 164.65 306.807C165.055 307.104 165.498 307.292 165.978 307.369C166.456 307.438 166.969 307.369 167.517 307.162C168.189 306.907 168.69 306.555 169.021 306.104C169.351 305.653 169.555 305.145 169.634 304.581C169.719 304.014 169.732 303.429 169.67 302.826L168.668 300.185C168.436 299.814 168.165 299.473 167.855 299.165C167.551 298.846 167.211 298.59 166.837 298.397C166.468 298.194 166.06 298.077 165.614 298.046C165.168 298.014 164.689 298.096 164.177 298.289C163.622 298.499 163.188 298.798 162.874 299.183C162.566 299.559 162.36 299.997 162.256 300.495C162.158 300.984 162.146 301.514 162.221 302.087C162.301 302.65 162.453 303.228 162.677 303.819ZM171.841 287.994L178.224 304.825L176.185 305.597L169.803 288.766L171.841 287.994ZM187.695 298.106L184.238 288.989L186.276 288.218L190.772 300.073L188.832 300.808L187.695 298.106ZM187.131 295.462L187.967 295.121C188.266 295.91 188.459 296.672 188.546 297.408C188.637 298.133 188.593 298.81 188.413 299.438C188.233 300.066 187.9 300.63 187.414 301.132C186.924 301.626 186.256 302.034 185.408 302.355C184.831 302.573 184.27 302.69 183.724 302.705C183.185 302.716 182.678 302.612 182.201 302.391C181.725 302.171 181.285 301.815 180.882 301.325C180.486 300.831 180.138 300.19 179.839 299.401L176.939 291.753L178.966 290.985L181.875 298.655C182.077 299.189 182.303 299.609 182.553 299.915C182.807 300.211 183.076 300.423 183.358 300.55C183.645 300.667 183.931 300.717 184.217 300.701C184.511 300.682 184.796 300.619 185.074 300.514C185.936 300.188 186.557 299.765 186.936 299.245C187.313 298.718 187.504 298.132 187.51 297.487C187.521 296.831 187.394 296.156 187.131 295.462ZM194.331 285.168L194.921 286.723L188.51 289.151L187.92 287.595L194.331 285.168ZM188.997 283.892L191.025 283.124L195.5 294.925C195.652 295.327 195.829 295.606 196.031 295.764C196.233 295.921 196.445 295.996 196.667 295.987C196.889 295.978 197.114 295.93 197.34 295.845C197.508 295.781 197.678 295.7 197.85 295.602C198.026 295.493 198.157 295.41 198.244 295.352L198.882 297.003C198.741 297.115 198.547 297.242 198.3 297.386C198.064 297.534 197.763 297.677 197.398 297.815C196.901 298.003 196.407 298.078 195.916 298.038C195.425 297.998 194.968 297.796 194.545 297.429C194.126 297.053 193.767 296.471 193.468 295.682L188.997 283.892ZM206.209 294.479C205.384 294.791 204.582 294.936 203.805 294.913C203.032 294.88 202.307 294.699 201.631 294.37C200.962 294.039 200.367 293.571 199.846 292.966C199.324 292.362 198.905 291.643 198.589 290.811L198.415 290.35C198.049 289.386 197.866 288.474 197.866 287.613C197.863 286.746 198.006 285.956 198.296 285.245C198.586 284.534 198.991 283.925 199.509 283.42C200.028 282.915 200.619 282.536 201.284 282.284C202.132 281.963 202.918 281.833 203.642 281.893C204.374 281.95 205.037 282.166 205.631 282.543C206.222 282.912 206.747 283.415 207.206 284.052C207.662 284.681 208.048 285.412 208.363 286.245L208.708 287.155L199.853 290.507L199.226 288.853L206.053 286.268L205.995 286.114C205.767 285.599 205.463 285.13 205.085 284.705C204.714 284.277 204.266 283.979 203.743 283.809C203.219 283.64 202.61 283.687 201.916 283.95C201.456 284.124 201.069 284.383 200.757 284.727C200.441 285.064 200.217 285.474 200.083 285.959C199.95 286.444 199.91 286.99 199.965 287.596C200.019 288.202 200.182 288.863 200.453 289.578L200.628 290.039C200.841 290.601 201.119 291.102 201.46 291.54C201.807 291.969 202.2 292.313 202.641 292.572C203.089 292.828 203.569 292.981 204.081 293.029C204.599 293.075 205.136 292.993 205.692 292.783C206.408 292.512 206.959 292.136 207.345 291.656C207.731 291.175 208.017 290.62 208.204 289.989L209.801 290.5C209.693 290.984 209.507 291.476 209.246 291.976C208.984 292.476 208.606 292.945 208.112 293.382C207.625 293.817 206.991 294.183 206.209 294.479ZM211.599 281.524L215.135 290.849L213.107 291.616L208.612 279.76L210.529 279.034L211.599 281.524ZM212.234 284.654L211.378 284.941C211.078 284.127 210.914 283.333 210.888 282.558C210.859 281.775 210.959 281.048 211.189 280.376C211.418 279.704 211.773 279.119 212.252 278.62C212.736 278.111 213.336 277.721 214.052 277.45C214.636 277.229 215.193 277.11 215.722 277.093C216.247 277.07 216.74 277.167 217.199 277.386C217.665 277.602 218.09 277.951 218.473 278.433C218.853 278.907 219.191 279.535 219.488 280.316L222.434 288.085L220.395 288.857L217.441 281.066C217.206 280.445 216.926 279.983 216.602 279.68C216.275 279.369 215.905 279.196 215.49 279.161C215.073 279.118 214.609 279.194 214.097 279.387C213.593 279.578 213.173 279.859 212.837 280.228C212.508 280.595 212.265 281.021 212.106 281.507C211.955 281.99 211.887 282.505 211.902 283.051C211.921 283.586 212.032 284.121 212.234 284.654ZM234.106 283.666L232.078 284.433L227.109 271.328C226.784 270.474 226.665 269.696 226.75 268.995C226.84 268.285 227.12 267.669 227.591 267.148C228.06 266.62 228.695 266.204 229.499 265.9C229.733 265.811 229.972 265.737 230.217 265.678C230.469 265.616 230.72 265.571 230.968 265.544L231.486 267.24C231.319 267.261 231.134 267.302 230.931 267.362C230.736 267.42 230.543 267.484 230.353 267.556C229.922 267.719 229.583 267.948 229.335 268.242C229.092 268.527 228.952 268.863 228.916 269.253C228.88 269.643 228.953 270.078 229.136 270.561L234.106 283.666ZM232.13 270.855L232.721 272.411L226.298 274.843L225.708 273.287L232.13 270.855ZM237.122 271.096L240.912 281.089L238.884 281.856L234.388 270L236.361 269.254L237.122 271.096ZM240.095 267.764L240.799 269.653C240.617 269.68 240.448 269.719 240.292 269.77C240.14 269.811 239.969 269.867 239.779 269.939C239.312 270.116 238.926 270.345 238.624 270.627C238.321 270.909 238.096 271.228 237.947 271.585C237.798 271.942 237.72 272.331 237.712 272.752C237.709 273.162 237.768 273.591 237.887 274.039L237.442 274.583C237.17 273.867 236.985 273.169 236.886 272.488C236.794 271.805 236.806 271.165 236.923 270.57C237.037 269.967 237.272 269.443 237.63 268.998C237.993 268.544 238.495 268.195 239.138 267.951C239.284 267.896 239.459 267.851 239.663 267.815C239.864 267.773 240.008 267.756 240.095 267.764ZM251.275 277.415C250.449 277.728 249.647 277.873 248.87 277.85C248.097 277.817 247.373 277.636 246.696 277.307C246.028 276.975 245.432 276.507 244.911 275.903C244.389 275.298 243.97 274.58 243.655 273.747L243.48 273.287C243.114 272.323 242.931 271.41 242.931 270.55C242.928 269.682 243.071 268.893 243.361 268.182C243.651 267.47 244.056 266.862 244.574 266.357C245.093 265.851 245.685 265.473 246.349 265.221C247.197 264.9 247.983 264.769 248.708 264.829C249.439 264.886 250.102 265.103 250.696 265.48C251.288 265.849 251.812 266.352 252.271 266.988C252.727 267.618 253.113 268.349 253.429 269.182L253.774 270.091L244.918 273.444L244.291 271.789L251.119 269.204L251.06 269.051C250.832 268.536 250.528 268.066 250.15 267.641C249.779 267.214 249.332 266.915 248.808 266.746C248.284 266.577 247.675 266.624 246.981 266.886C246.521 267.061 246.134 267.32 245.822 267.664C245.507 268 245.282 268.411 245.149 268.896C245.015 269.381 244.976 269.926 245.03 270.532C245.084 271.138 245.247 271.799 245.519 272.515L245.693 272.975C245.906 273.538 246.184 274.038 246.526 274.477C246.872 274.905 247.266 275.249 247.706 275.508C248.155 275.765 248.634 275.917 249.146 275.966C249.665 276.012 250.202 275.93 250.757 275.719C251.473 275.448 252.024 275.073 252.41 274.592C252.796 274.112 253.082 273.556 253.269 272.926L254.867 273.436C254.758 273.92 254.573 274.412 254.311 274.912C254.049 275.412 253.672 275.881 253.177 276.319C252.691 276.754 252.056 277.119 251.275 277.415ZM263.177 272.909C262.351 273.221 261.549 273.366 260.772 273.343C259.999 273.31 259.275 273.129 258.598 272.8C257.93 272.469 257.334 272.001 256.813 271.396C256.291 270.792 255.872 270.073 255.557 269.241L255.382 268.78C255.016 267.816 254.833 266.904 254.833 266.044C254.83 265.176 254.973 264.386 255.263 263.675C255.553 262.964 255.958 262.356 256.476 261.85C256.995 261.345 257.587 260.966 258.251 260.714C259.099 260.393 259.885 260.263 260.609 260.323C261.341 260.38 262.004 260.597 262.598 260.973C263.189 261.342 263.714 261.845 264.173 262.482C264.629 263.111 265.015 263.842 265.331 264.675L265.676 265.585L256.82 268.937L256.193 267.283L263.021 264.698L262.962 264.544C262.734 264.029 262.43 263.56 262.052 263.135C261.681 262.707 261.233 262.409 260.71 262.24C260.186 262.07 259.577 262.117 258.883 262.38C258.423 262.554 258.036 262.813 257.724 263.157C257.409 263.494 257.184 263.904 257.051 264.389C256.917 264.874 256.877 265.42 256.932 266.026C256.986 266.632 257.149 267.293 257.42 268.009L257.595 268.469C257.808 269.031 258.086 269.532 258.428 269.97C258.774 270.399 259.168 270.743 259.608 271.002C260.057 271.258 260.536 271.411 261.048 271.459C261.566 271.505 262.103 271.423 262.659 271.213C263.375 270.942 263.926 270.566 264.312 270.086C264.698 269.605 264.984 269.05 265.171 268.419L266.769 268.93C266.66 269.414 266.475 269.906 266.213 270.406C265.951 270.906 265.574 271.375 265.079 271.812C264.593 272.247 263.958 272.613 263.177 272.909ZM168.474 329.747L169.106 331.413L163.757 333.438L163.126 331.772L168.474 329.747ZM179.569 331.937L177.255 325.834C177.077 325.366 176.829 324.997 176.508 324.725C176.193 324.444 175.813 324.279 175.368 324.23C174.923 324.181 174.427 324.26 173.879 324.468C173.368 324.662 172.951 324.919 172.631 325.241C172.317 325.56 172.105 325.904 171.994 326.272C171.89 326.637 171.9 326.984 172.025 327.313L169.998 328.08C169.837 327.657 169.787 327.195 169.848 326.696C169.91 326.196 170.081 325.701 170.363 325.21C170.649 324.709 171.044 324.251 171.546 323.835C172.053 323.409 172.664 323.061 173.38 322.79C174.243 322.463 175.058 322.322 175.826 322.365C176.602 322.405 177.288 322.651 177.885 323.101C178.487 323.542 178.955 324.204 179.29 325.088L181.385 330.611C181.534 331.005 181.726 331.413 181.961 331.833C182.203 332.251 182.454 332.595 182.715 332.863L182.782 333.039L180.666 333.84C180.476 333.645 180.277 333.365 180.072 333C179.864 332.627 179.696 332.273 179.569 331.937ZM177.963 326.643L178.525 328.059L176.475 328.835C175.898 329.054 175.401 329.297 174.984 329.563C174.564 329.822 174.236 330.101 173.998 330.4C173.76 330.699 173.614 331.017 173.558 331.356C173.5 331.687 173.54 332.035 173.679 332.4C173.82 332.773 174.033 333.081 174.317 333.324C174.602 333.567 174.946 333.717 175.352 333.772C175.762 333.817 176.215 333.746 176.712 333.558C177.333 333.323 177.831 332.984 178.206 332.541C178.581 332.098 178.836 331.634 178.969 331.149C179.11 330.661 179.124 330.234 179.01 329.868L180.246 330.515C180.311 330.842 180.301 331.234 180.216 331.692C180.13 332.151 179.963 332.623 179.713 333.11C179.468 333.588 179.129 334.038 178.696 334.46C178.268 334.873 177.732 335.201 177.089 335.445C176.285 335.749 175.521 335.859 174.795 335.775C174.077 335.687 173.45 335.444 172.915 335.046C172.384 334.637 171.993 334.104 171.744 333.446C171.503 332.811 171.415 332.205 171.481 331.629C171.544 331.045 171.748 330.504 172.094 330.006C172.437 329.5 172.905 329.039 173.499 328.622C174.093 328.205 174.795 327.843 175.606 327.536L177.963 326.643ZM196.834 324.122C196.723 323.83 196.555 323.584 196.329 323.386C196.108 323.177 195.761 323.045 195.289 322.99C194.821 322.925 194.168 322.963 193.328 323.106C192.618 323.216 191.96 323.277 191.354 323.289C190.756 323.299 190.22 323.239 189.745 323.109C189.277 322.978 188.875 322.766 188.539 322.476C188.203 322.185 187.943 321.795 187.757 321.306C187.58 320.838 187.515 320.358 187.561 319.864C187.615 319.367 187.771 318.886 188.029 318.421C188.295 317.953 188.663 317.525 189.134 317.138C189.606 316.751 190.174 316.431 190.839 316.179C191.789 315.82 192.663 315.681 193.463 315.762C194.263 315.844 194.948 316.098 195.519 316.525C196.088 316.944 196.501 317.494 196.759 318.173L194.731 318.941C194.606 318.612 194.387 318.332 194.074 318.1C193.765 317.857 193.385 317.705 192.935 317.641C192.492 317.575 192.004 317.643 191.47 317.845C190.908 318.058 190.484 318.318 190.2 318.626C189.921 318.924 189.75 319.235 189.689 319.559C189.635 319.88 189.664 320.187 189.775 320.479C189.858 320.698 189.969 320.882 190.109 321.029C190.253 321.167 190.451 321.271 190.704 321.343C190.954 321.407 191.281 321.433 191.686 321.422C192.092 321.411 192.595 321.362 193.198 321.276C194.253 321.127 195.152 321.087 195.897 321.156C196.642 321.225 197.252 321.424 197.728 321.753C198.204 322.083 198.562 322.565 198.803 323.201C199 323.719 199.07 324.236 199.014 324.75C198.966 325.261 198.797 325.751 198.507 326.22C198.221 326.679 197.83 327.103 197.334 327.491C196.843 327.869 196.25 328.19 195.556 328.453C194.511 328.848 193.556 328.997 192.692 328.898C191.827 328.799 191.096 328.525 190.499 328.074C189.902 327.623 189.479 327.069 189.23 326.412L191.268 325.64C191.508 326.184 191.836 326.565 192.253 326.783C192.667 326.994 193.113 327.089 193.589 327.067C194.063 327.038 194.508 326.945 194.924 326.787C195.479 326.577 195.916 326.328 196.233 326.041C196.557 325.751 196.77 325.441 196.87 325.11C196.971 324.78 196.958 324.451 196.834 324.122ZM200.424 312.801L204.92 324.656L202.881 325.428L198.385 313.572L200.424 312.801ZM197.039 310.486C196.915 310.157 196.908 309.842 197.019 309.541C197.138 309.237 197.395 309.01 197.789 308.861C198.177 308.714 198.515 308.716 198.806 308.865C199.104 309.011 199.315 309.248 199.439 309.577C199.559 309.891 199.555 310.202 199.429 310.508C199.308 310.805 199.053 311.026 198.666 311.173C198.272 311.322 197.93 311.326 197.643 311.185C197.36 311.033 197.158 310.8 197.039 310.486ZM206.589 313.16L210.191 322.66L208.153 323.432L203.657 311.576L205.586 310.846L206.589 313.16ZM207.356 316.441L206.401 316.765C206.101 315.951 205.923 315.162 205.867 314.398C205.809 313.627 205.884 312.909 206.091 312.246C206.299 311.582 206.65 310.999 207.144 310.494C207.635 309.982 208.275 309.577 209.064 309.278C209.62 309.068 210.162 308.955 210.69 308.938C211.216 308.915 211.714 309.006 212.185 309.212C212.656 309.418 213.086 309.748 213.475 310.202C213.865 310.656 214.201 311.256 214.483 312.001L217.479 319.901L215.452 320.669L212.493 312.867C212.258 312.246 211.963 311.789 211.61 311.497C211.264 311.202 210.87 311.042 210.426 311.018C209.98 310.987 209.501 311.068 208.989 311.262C208.39 311.488 207.93 311.784 207.608 312.148C207.287 312.512 207.076 312.926 206.976 313.39C206.877 313.853 206.863 314.347 206.936 314.871C207.014 315.384 207.154 315.908 207.356 316.441ZM214.615 312.414L213.414 313.345C213.175 312.692 213.044 312.028 213.021 311.351C213.006 310.672 213.107 310.024 213.324 309.407C213.549 308.787 213.902 308.232 214.384 307.74C214.863 307.241 215.479 306.849 216.232 306.564C216.868 306.324 217.462 306.195 218.015 306.177C218.576 306.157 219.091 306.259 219.56 306.482C220.033 306.696 220.46 307.039 220.84 307.514C221.221 307.988 221.552 308.597 221.835 309.342L224.789 317.133L222.751 317.905L219.788 310.092C219.536 309.428 219.235 308.953 218.884 308.668C218.539 308.373 218.148 308.224 217.713 308.222C217.282 308.209 216.807 308.301 216.288 308.498C215.843 308.667 215.477 308.893 215.192 309.176C214.907 309.46 214.698 309.781 214.567 310.139C214.433 310.491 214.369 310.862 214.375 311.252C214.388 311.64 214.468 312.027 214.615 312.414ZM226.254 305.627L231.614 319.762L229.575 320.534L223.351 304.12L225.214 303.414L226.254 305.627ZM235.589 306.152L235.677 306.382C236.004 307.244 236.205 308.083 236.28 308.898C236.352 309.706 236.294 310.455 236.104 311.145C235.922 311.832 235.603 312.433 235.146 312.948C234.69 313.464 234.093 313.861 233.355 314.14C232.602 314.425 231.89 314.553 231.219 314.523C230.548 314.493 229.921 314.317 229.339 313.994C228.757 313.672 228.22 313.224 227.726 312.65C227.241 312.074 226.796 311.386 226.392 310.587L225.927 309.359C225.682 308.45 225.549 307.602 225.527 306.817C225.505 306.031 225.598 305.319 225.807 304.681C226.021 304.032 226.364 303.472 226.837 303C227.307 302.521 227.915 302.141 228.66 301.859C229.405 301.577 230.122 301.472 230.81 301.546C231.495 301.612 232.136 301.837 232.733 302.221C233.329 302.605 233.868 303.132 234.348 303.803C234.832 304.463 235.246 305.246 235.589 306.152ZM233.638 307.154L233.551 306.924C233.327 306.332 233.054 305.8 232.733 305.329C232.409 304.85 232.041 304.463 231.629 304.168C231.221 303.863 230.773 303.673 230.285 303.599C229.794 303.518 229.272 303.582 228.716 303.792C228.205 303.986 227.792 304.242 227.479 304.561C227.173 304.878 226.945 305.236 226.796 305.635C226.643 306.026 226.555 306.444 226.531 306.888C226.512 307.321 226.538 307.754 226.61 308.186L227.686 311.024C228.026 311.48 228.414 311.885 228.848 312.238C229.28 312.584 229.768 312.813 230.312 312.924C230.853 313.029 231.456 312.955 232.121 312.703C232.669 312.496 233.097 312.204 233.406 311.828C233.719 311.442 233.927 311 234.03 310.501C234.141 310 234.16 309.467 234.088 308.901C234.012 308.328 233.863 307.746 233.638 307.154ZM236.282 293.535L242.664 310.365L240.626 311.137L234.243 294.306L236.282 293.535ZM250.923 307.488C250.097 307.801 249.296 307.946 248.518 307.923C247.745 307.89 247.021 307.709 246.345 307.38C245.676 307.048 245.081 306.58 244.559 305.976C244.037 305.372 243.619 304.653 243.303 303.82L243.128 303.36C242.763 302.396 242.58 301.483 242.579 300.623C242.576 299.756 242.72 298.966 243.01 298.255C243.3 297.544 243.704 296.935 244.223 296.43C244.741 295.924 245.333 295.546 245.998 295.294C246.845 294.973 247.631 294.843 248.356 294.902C249.088 294.959 249.751 295.176 250.345 295.553C250.936 295.922 251.461 296.425 251.919 297.062C252.375 297.691 252.761 298.422 253.077 299.255L253.422 300.164L244.567 303.517L243.939 301.863L250.767 299.277L250.709 299.124C250.48 298.609 250.177 298.139 249.798 297.714C249.427 297.287 248.98 296.988 248.456 296.819C247.932 296.65 247.323 296.697 246.629 296.959C246.169 297.134 245.783 297.393 245.47 297.737C245.155 298.073 244.931 298.484 244.797 298.969C244.663 299.454 244.624 299.999 244.678 300.605C244.732 301.211 244.895 301.872 245.167 302.588L245.341 303.048C245.555 303.611 245.832 304.111 246.174 304.55C246.52 304.979 246.914 305.322 247.355 305.582C247.803 305.838 248.283 305.99 248.794 306.039C249.313 306.085 249.85 306.003 250.405 305.792C251.121 305.521 251.672 305.146 252.058 304.665C252.444 304.185 252.731 303.63 252.918 302.999L254.515 303.509C254.406 303.993 254.221 304.485 253.959 304.986C253.698 305.486 253.32 305.954 252.826 306.392C252.339 306.827 251.705 307.192 250.923 307.488ZM256.995 285.692L259.033 284.92L264.543 299.449L265.241 301.817L263.377 302.522L256.995 285.692ZM271.142 292.69L271.229 292.92C271.556 293.782 271.757 294.621 271.832 295.436C271.905 296.244 271.846 296.993 271.657 297.683C271.467 298.373 271.144 298.976 270.688 299.491C270.231 300.006 269.634 300.404 268.896 300.683C268.144 300.968 267.434 301.091 266.767 301.051C266.105 301.001 265.487 300.804 264.915 300.461C264.342 300.119 263.807 299.645 263.31 299.039C262.82 298.431 262.367 297.709 261.949 296.873L261.567 295.865C261.322 294.955 261.182 294.11 261.145 293.33C261.116 292.548 261.202 291.839 261.403 291.203C261.602 290.559 261.935 290.003 262.4 289.534C262.863 289.058 263.467 288.679 264.212 288.397C264.958 288.115 265.674 288.011 266.362 288.084C267.047 288.151 267.685 288.377 268.274 288.764C268.871 289.148 269.413 289.674 269.9 290.341C270.384 291.001 270.798 291.785 271.142 292.69ZM269.191 293.692L269.103 293.462C268.879 292.87 268.614 292.336 268.307 291.859C267.998 291.374 267.648 290.981 267.258 290.677C266.864 290.367 266.427 290.173 265.947 290.096C265.464 290.012 264.934 290.079 264.356 290.297C263.845 290.491 263.433 290.748 263.119 291.067C262.813 291.383 262.585 291.741 262.436 292.14C262.283 292.532 262.195 292.949 262.171 293.393C262.152 293.826 262.178 294.259 262.25 294.691L263.252 297.332C263.562 297.799 263.939 298.22 264.382 298.595C264.83 298.961 265.333 299.209 265.893 299.339C266.459 299.467 267.075 299.405 267.74 299.154C268.288 298.946 268.714 298.66 269.018 298.294C269.327 297.918 269.527 297.487 269.618 297.001C269.717 296.513 269.727 295.987 269.647 295.424C269.567 294.861 269.415 294.284 269.191 293.692ZM271.812 280.081L278.195 296.912L276.156 297.684L269.774 280.853L271.812 280.081ZM278.714 290.086L278.619 289.834C278.295 288.98 278.118 288.14 278.09 287.315C278.058 286.484 278.174 285.709 278.437 284.991C278.696 284.266 279.102 283.628 279.653 283.077C280.202 282.518 280.889 282.083 281.715 281.77C282.547 281.455 283.355 281.325 284.136 281.38C284.922 281.425 285.652 281.633 286.327 282.003C287.007 282.364 287.611 282.866 288.14 283.51C288.665 284.147 289.09 284.892 289.414 285.747L289.509 285.999C289.834 286.853 290.01 287.693 290.039 288.518C290.067 289.342 289.948 290.118 289.681 290.846C289.418 291.564 289.013 292.202 288.464 292.76C287.92 293.309 287.232 293.741 286.399 294.056C285.566 294.371 284.76 294.505 283.982 294.457C283.2 294.402 282.47 294.195 281.79 293.834C281.115 293.463 280.514 292.959 279.989 292.323C279.463 291.686 279.039 290.941 278.714 290.086ZM280.646 289.067L280.742 289.319C280.966 289.91 281.248 290.443 281.586 290.916C281.921 291.382 282.304 291.764 282.734 292.06C283.171 292.354 283.646 292.538 284.159 292.611C284.668 292.677 285.204 292.604 285.767 292.391C286.322 292.18 286.765 291.883 287.096 291.499C287.431 291.105 287.661 290.654 287.786 290.147C287.912 289.64 287.945 289.101 287.888 288.53C287.834 287.949 287.695 287.362 287.471 286.771L287.375 286.519C287.154 285.934 286.872 285.41 286.529 284.947C286.191 284.474 285.803 284.09 285.365 283.796C284.933 283.492 284.46 283.304 283.948 283.23C283.443 283.154 282.909 283.223 282.346 283.436C281.791 283.646 281.346 283.948 281.011 284.342C280.683 284.734 280.454 285.188 280.324 285.705C280.199 286.212 280.166 286.755 280.227 287.333C280.285 287.904 280.425 288.482 280.646 289.067ZM297.437 276.068L299.278 275.371L303.678 286.974C304.074 288.019 304.201 288.99 304.057 289.889C303.913 290.787 303.533 291.57 302.917 292.237C302.311 292.91 301.515 293.432 300.529 293.806C300.12 293.961 299.612 294.078 299.007 294.156C298.412 294.24 297.79 294.229 297.14 294.124C296.501 294.024 295.905 293.786 295.353 293.41L295.959 291.802C296.683 292.213 297.359 292.433 297.989 292.462C298.625 292.488 299.21 292.4 299.744 292.198C300.387 291.955 300.896 291.624 301.272 291.206C301.649 290.788 301.875 290.293 301.95 289.721C302.036 289.154 301.949 288.527 301.688 287.841L298.239 278.746L297.437 276.068ZM291.57 285.219L291.483 284.989C291.139 284.083 290.933 283.221 290.865 282.403C290.802 281.575 290.87 280.818 291.07 280.133C291.277 279.444 291.615 278.849 292.084 278.345C292.55 277.834 293.145 277.442 293.869 277.168C294.614 276.886 295.314 276.771 295.969 276.824C296.628 276.867 297.246 277.063 297.822 277.413C298.402 277.753 298.937 278.227 299.426 278.836C299.916 279.444 300.371 280.17 300.791 281.013L301.173 282.021C301.423 282.921 301.562 283.762 301.591 284.544C301.628 285.324 301.542 286.033 301.333 286.672C301.131 287.308 300.799 287.864 300.336 288.34C299.87 288.809 299.261 289.186 298.509 289.471C297.8 289.739 297.1 289.833 296.41 289.752C295.726 289.668 295.077 289.433 294.463 289.048C293.849 288.662 293.294 288.145 292.798 287.498C292.306 286.84 291.897 286.081 291.57 285.219ZM293.51 284.221L293.597 284.451C293.822 285.043 294.091 285.576 294.404 286.05C294.725 286.522 295.085 286.908 295.483 287.208C295.888 287.506 296.331 287.693 296.811 287.77C297.289 287.84 297.802 287.771 298.35 287.564C299.022 287.309 299.523 286.956 299.853 286.506C300.184 286.055 300.388 285.547 300.467 284.983C300.552 284.416 300.564 283.83 300.503 283.227L299.501 280.587C299.269 280.215 298.998 279.875 298.688 279.566C298.383 279.247 298.044 278.991 297.67 278.799C297.301 278.596 296.893 278.479 296.447 278.448C296 278.416 295.521 278.497 295.01 278.691C294.455 278.901 294.02 279.199 293.707 279.585C293.399 279.961 293.193 280.398 293.089 280.897C292.99 281.385 292.979 281.916 293.054 282.489C293.134 283.052 293.286 283.629 293.51 284.221Z" fill="#3A3A3A"/>
</svg>
